<?xml version="1.0" standalone="no"?>
<!DOCTYPE svg PUBLIC "-//W3C//DTD SVG 1.1//EN" "http://www.w3.org/Graphics/SVG/1.1/DTD/svg11.dtd" >
<svg xmlns="http://www.w3.org/2000/svg" xmlns:xlink="http://www.w3.org/1999/xlink" version="1.1">
<metadata></metadata>
<defs>
<font id="shoutest_typefacenormalnormal" horiz-adv-x="1041" >
<font-face units-per-em="2048" ascent="1638" descent="-410" />
<missing-glyph horiz-adv-x="443" />
<glyph horiz-adv-x="0" />
<glyph unicode="&#xd;" horiz-adv-x="2048" />
<glyph unicode=" "  horiz-adv-x="443" />
<glyph unicode="&#x09;" horiz-adv-x="443" />
<glyph unicode="&#xa0;" horiz-adv-x="443" />
<glyph unicode="," horiz-adv-x="170" d="M0 177v19v19h126q3 -10 8.5 -24t25.5 -14q3 -61 -24 -126t-92 -106q20 92 8.5 143.5t-52.5 88.5z" />
<glyph unicode="." horiz-adv-x="163" d="M0 99v82q0 48 44 48h69q44 0 44 -48v-82q0 -44 -44 -44h-69q-44 0 -44 44z" />
<glyph unicode="A" horiz-adv-x="1430" d="M0 51q7 0 20 7q10 0 32.5 1.5t36.5 5.5h65h71h67h70q10 -3 30.5 -5t34.5 -2q20 -14 44 0q31 14 31 44v17q0 38 -41 52q7 34 17 47l17 38v3h304l13 -41q0 1 7 -13h-273l-17 -38q-10 -14 -17 -48q41 -14 41 -51v-17q0 -31 -31 -44q-24 -10 -44 0q-14 0 -34.5 1.5t-30.5 1.5 q-34 0 -70 2t-67 2q-38 0 -71.5 -2t-64.5 -2q-14 0 -34.5 -1.5t-33.5 -1.5q-20 -7 -45 0q-27 14 -27 44zM0 102v17q79 0 130 123l501 1181h28l502 -1181q51 -123 129 -123v-17q-3 7 -68 12t-157 5t-157 -5t-65 -12v17q41 0 41 41q0 17 -24 79l-17 41l-10 31h-372l-14 -31 l-17 -41q-20 -51 -20 -79q0 -41 37 -41v-17q-10 7 -73 12t-149 5q-92 0 -155 -5t-70 -12zM150 167q24 3 75 4q31 0 65 -2t65 -2q0 20 8.5 46t18.5 46v4l17 37l14 31q10 31 48 31h372q31 0 44 -31l31 -72q20 -44 27 -92q31 0 65 2t65 2q51 0 75 -4q-10 14 -15 27.5t-12 27.5 l-389 915h-14l160 -376q2 -4 2 -8q0 -21 -62 -21h-10q-84 2 -93 29l-4 10q-17 38 -58 38q-44 0 -58 -38l-3 -10q-22 -35 -88 -35h-13q-65 3 -65 26q0 4 2 9l160 376h-13l-390 -915q-10 -14 -15 -27.5t-12 -27.5zM519 580q-10 -27 7 -48q7 -24 41 -23h157q27 0 44 23 q14 17 3 48l-13 31l-65 154q-17 31 -48 30q-38 0 -48 -30l-65 -154zM567 560l13 31l65 153l68 -153l11 -31h-157zM645 611v3v-3zM713 1423q34 -7 45 -34l502 -1177q7 -10 20 -38q-27 7 -44 37.5t-28 51.5zM843 51q10 0 24 7q10 0 30.5 1.5t30.5 5.5h68.5h68.5h68h72 q10 -3 29 -5t32 -2q17 -10 41 -3q38 10 38 47v17q51 0 51 -51v-17q0 -38 -37 -48q-24 -3 -38 4q-20 3 -65 3q-38 0 -72 2t-64 2q-38 0 -72 -2t-65 -2q-14 0 -34.5 -1.5t-30.5 -1.5q-20 -7 -41 -4q-34 10 -34 48z" />
<glyph unicode="B" horiz-adv-x="1133" d="M0 51h529q68 0 138 8.5t135 29.5q92 24 154 102q61 72 78 164q8 46 8 92t-8 92q-31 109 -89 181q106 -89 140 -232q8 -46 8 -92.5t-8 -93.5q-17 -94 -78 -165q-58 -75 -154 -99q-119 -38 -269 -38h-4h-529q-51 0 -51 51zM0 102v21q75 0 75 130v1020q0 130 -75 130v20h75 h386q154 -7 249 -34q123 -48 177 -170q31 -79 31 -157q0 -92 -37.5 -155.5t-109.5 -121.5q109 -48 164 -143.5t57 -197.5q0 -3 -1 -6q1 -100 -49 -184q-52 -86 -154 -117t-259 -35h-49h-70h-410zM0 1352h2h5q3 -3 13 -41q-20 14 -20 41zM113 154h416q58 0 121 6.5t125 27.5 q58 14 102 68q64 79 64 181q0 39 -9 82q-34 157 -181 218q-31 17 -31 41q-7 31 17 48q61 51 94 102.5t33 133.5q0 51 -7 75h-14q10 -38 10 -75q0 -79 -30.5 -128.5t-92.5 -97.5q-31 -24 -23 -54q0 -17 -87.5 -34.5t-195.5 -22.5q-35 -2 -67 -2q-69 -1 -129 7q-88 10 -88 52 v355h-14v-884q0 -58 -13 -99zM314 887q0 -64 63 -64h2q68 0 106 3q41 0 61 3l2 2l2 2q99 24 133 130q10 36 10 71.5t-10 71.5q-7 20 -14 31h-14q7 -14 14 -34q10 -34 10 -68.5t-10 -68.5q-27 -99 -123 -123q-17 -3 -34 -5t-31 -2h-52.5h-49.5q-51 0 -51 51v125v125h-14v-250 zM328 345v293q0 51 51 51h8.5h11.5q72 0 110 -3q55 0 75 -7q92 -20 126 -119q10 -34 10 -69t-10 -71q-34 -96 -126 -120q-17 -3 -37.5 -4.5t-37.5 -1.5h-56.5h-53.5h-12h-8q-51 0 -51 51zM379 345q61 0 119 1.5t75 5.5q66 13 86 85q7 28 7 55t-7 54q-20 68 -86 85 q-17 0 -75 3.5t-119 3.5v-293zM379 887q119 0 153 7q65 14 89 86q7 28 7 55t-7 54q-24 68 -89 85q-34 7 -153 7v-148.5v-145.5zM430 396v191q48 0 72 -3q44 0 58 -4q34 -10 51 -48v-3q-17 3 -55 3q-20 0 -39 2t-36 2v-140h-27.5h-23.5zM430 939v191q17 -3 48 -4q31 0 44 -3 q34 -10 48 -51q-10 3 -41 3h-23.5h-24.5v-133h-3q-17 -3 -48 -3zM860 799q109 102 109 263q0 82 -34 174q-27 57 -54 95q68 -58 105 -147q34 -92 35 -174q0 -157 -103 -259q-14 10 -29 22t-29 26z" />
<glyph unicode="C" horiz-adv-x="969" d="M0 761q0 287 167 471q174 191 464 191h188q-3 -31 -5 -83.5t-2 -114.5q0 -61 2 -109t5 -78q-74 72 -193 72q-12 0 -25 -1q-133 -7 -219 -105q-88 -100 -88 -243t88 -239q85 -102 219 -106q15 -1 29 -1q117 0 189 73q-3 -31 -5 -80.5t-2 -107.5q0 -65 2 -116t5 -82h-188 q-290 0 -464 192q-167 181 -167 467zM51 761q0 -123 36 -232t118 -198q157 -177 426 -177h134q-3 34 -3.5 71.5t-0.5 74.5v42.5v46.5q-68 -27 -160 -27q-160 10 -260 126q-102 116 -102 273t102 277q65 68 137 99h-31q-61 -31 -112 -89q-106 -123 -106 -287q0 -48 -72 -48 q-5 1 -10 1q-82 4 -82 47q0 222 109 376h-17q-106 -157 -106 -376zM177 212q177 -160 454 -161h188q24 0 41 17q14 20 10 41q-3 24 -3 79q-3 38 -3 112v89t6 92v2v5q3 0 24 -7q31 -20 28 -51q-7 -44 -7 -92v-89v-58t3 -58q0 -51 4 -75q3 -27 -11 -41q-17 -17 -41 -17h-187 q-147 0 -275 48t-227 160zM345 761q0 123 75 208q79 82 184 89h10q106 0 168 -58q16 -14 34 -14q13 0 27 7q31 10 27 51q-7 38 -7 83q1 3 1 6v92q0 75 3 113q0 55 3 79v1v5q24 0 41 -17q14 -20 11 -41q-3 -27 -4 -78q-3 -38 -3 -113v-92t7 -89v-7q0 -33 -28 -47 q-38 -14 -58 10q-65 58 -171 58h-10q-106 -7 -184 -89q-75 -85 -75 -208q0 -113 65 -191q-14 10 -41 37q-75 82 -75 205z" />
<glyph unicode="D" horiz-adv-x="1211" d="M0 51h437q143 0 271 48t231 160q181 205 181 502q0 140 -43 268t-135 234q10 -14 24 -26t24 -22q181 -208 181 -505q0 -304 -181 -502q-102 -113 -230.5 -160.5t-271.5 -47.5h-437q-51 0 -51 51zM0 102v21q75 0 75 130v1020q0 130 -75 130v20h75h164h140h58 q287 0 464 -191q167 -191 167 -471t-167 -467q-177 -191 -464 -192h-58h-140h-239zM0 1352h2h5q3 -3 13 -41q-20 14 -20 41zM113 154h324q263 0 427 177q82 89 117.5 198t35.5 232q0 222 -109 376h-14q109 -154 110 -376q-4 -41 -86 -43h-5q-77 0 -73 43q0 164 -106 287 q-58 58 -116 89h-31q79 -34 137 -99q102 -119 102 -277q0 -157 -102 -273t-256 -126h-26h-22h-41q-51 0 -51 54v693q0 20 7 28h-18q-3 -7 -3 -28v-348q0 -37 -87 -39q-3 0 -6 -1q-81 0 -81 40v376h-14v-884q0 -58 -13 -99zM379 416h41q24 -7 44 0q133 3 222 106 q89 102 89 239t-89 243q-89 99 -222 105q-20 3 -44 0h-41v-222v-249v-222zM430 468v590h15.5h18.5q106 -7 185 -89q0 -3 3 -8t7 -5q-61 44 -144 51h-18.5h-15.5v-539h-12h-5h-18.5h-15.5z" />
<glyph unicode="E" d="M0 51h860q20 0 38 17q14 14 13 41q-7 41 -7 86v6q0 48 1 96v92t6 96v1v6q20 0 38 -18q17 -20 14 -41q-7 -48 -7 -95.5v-91.5v-96t7 -92q3 -24 -14 -41t-38 -17h-860q-51 0 -51 51zM0 102v17q75 0 75 123v1041q0 123 -75 123v17h765q-7 -31 -7 -82v-112v-112.5t7 -82.5 h-11q0 75 -119 75h-256v-71v-120v-34q17 14 42.5 22.5t29.5 45.5q19 2 38 2q105 0 216 -46q131 -54 213 -184q-126 28 -213 28q-47 0 -83 -8q-100 -24 -171 -106h-37.5h-34.5v-30v-123v-69h351q119 0 120 76h10q-3 -31 -5 -82.5t-2 -112.5t2 -112.5t5 -82.5h-860zM0 1355 q7 0 7 -3q13 -7 13 -41q-20 14 -20 44zM113 154h693q-3 34 -3.5 69.5t-0.5 73.5v36v39q-38 -10 -72 -10h-351q-51 0 -51 54v222q0 24 13 38q14 14 38 13h23.5h24.5q41 41 75 59q60 41 134 51q43 6 87 5q31 0 62 -2q-126 99 -297 99q-14 -20 -24 -27q-7 -7 -34 -21 q-7 -3 -13.5 -6.5t-10.5 -3.5q-27 -20 -51 -3q-27 14 -27 44v225q0 20 7 28h-18q-3 -7 -3 -28v-225q0 -38 34 -55q14 -11 29 -11q17 0 36 15q3 0 10 3.5t14 6.5q17 3 34 21q14 7 24 23q137 0 246 -71q-65 0 -126.5 -10.5t-116.5 -44.5q-50 -39 -204 -57q-30 -4 -55 -3 q-99 0 -99 60v376h-14v-895q0 -48 -13 -88zM430 468v119h10h14q27 7 34 17q27 31 68 58q63 38 146 38h25q99 -6 181 -24q31 -14 51 20q20 24 4 55q-20 34 -48 68q55 -55 99 -119q14 -31 -4 -58q-17 -31 -51 -17q-82 17 -181 23q-13 1 -25 1q-83 0 -145 -38q-41 -31 -65 -58 q-10 -10 -38 -17h-14h-10v-68h-51zM430 1000v58h205q10 0 34 -1.5t31 -12.5q3 -3 3 -10q0 -17 10 -27h-17h-10h-205v-3h-18.5h-15.5t-12 -2zM754 983h11q20 0 37 17q14 14 14 41q-7 44 -7 92v96v92t7 96v1v5q20 0 37 -17q14 -14 14 -41q-7 -48 -7 -95.5v-91.5v-97.5t7 -94.5 q0 -24 -14 -37q-17 -17 -37 -17h-10q-51 0 -52 51z" />
<glyph unicode="F" d="M0 51q14 0 27 7q10 0 31 1.5t31 5.5q34 0 68 1.5t68 1.5t68.5 -1t68.5 -2q10 -3 29 -5t36 -2q14 -7 24 -7q51 0 51 51v17q51 0 51 -51v-17q0 -51 -51 -51q-10 0 -24 7q-14 0 -34.5 1.5t-30.5 5.5q-34 0 -68 1.5t-65 1.5q-38 0 -72 -1.5t-68 -1.5q-10 -3 -30.5 -5 t-30.5 -2q-14 -7 -24 -7q-55 0 -55 51zM0 102v17q75 0 75 120v1044q0 123 -75 123v17h860q-3 -31 -5 -82t-2 -112t2 -112.5t5 -82.5h-10q0 75 -120 75h-351v-68v-96v-27v-31v-3q17 14 42.5 22.5t29.5 45.5q19 2 38 2q105 0 216 -46q131 -54 213 -184q-126 28 -213 28 q-47 0 -83 -8q-100 -24 -171 -106h-37.5h-34.5v-30v-184.5v-184.5q0 -119 72 -120v-17q0 7 -67 12t-159 5t-158.5 -5t-66.5 -12zM0 1355q7 0 7 -3q13 -7 13 -41q-20 14 -20 44zM119 167q24 0 51.5 2t54.5 2q72 0 110 -4q-7 24 -7 72v198v201q0 24 13 38q14 14 38 13h23.5 h24.5q41 41 75 59q60 41 134 51q43 6 87 5q31 0 62 -2q-126 99 -297 99q-14 -20 -24 -27q-7 -7 -34 -21q-7 -3 -13.5 -6.5t-10.5 -3.5q-27 -20 -51 -3q-27 14 -27 44v225q0 20 7 28h-18q-3 -7 -3 -28v-225q0 -38 34 -55q14 -11 29 -11q17 0 36 15q3 0 10 3.5t14 6.5 q17 3 34 21q14 7 24 23q137 0 246 -71q-65 0 -126.5 -10.5t-116.5 -44.5q-50 -34 -204 -41q-20 -1 -37 -1q-117 0 -117 42v376h-14v-898q0 -24 -7 -72zM430 239v348h10h14q27 7 34 17q27 31 68 58q63 38 146 38h25q99 -6 181 -24q31 -14 51 20q20 24 4 55q-20 34 -48 68 q55 -55 99 -119q14 -31 -4 -58q-17 -31 -51 -17q-82 17 -181 23q-13 1 -25 1q-83 0 -145 -38q-41 -31 -65 -58q-10 -10 -38 -17h-14h-10v-348v-10v-18q-10 10 -30 11h-3q-4 0 -4 3q-10 3 -12 29t-2 36zM430 1000v58h300q10 0 34 -1.5t35 -12.5v-6v-4q0 -17 10 -27h-17h-10 h-301v-3h-18.5h-15.5t-12 -2zM850 983h10q20 0 38 17q14 14 13 41q-7 41 -7 86v6q0 48 1 96v92t6 96v1v5q20 0 38 -17q17 -20 14 -41q-7 -48 -7 -95.5v-91.5v-97.5t7 -94.5q3 -20 -14 -37t-38 -17h-6q-55 0 -55 51z" />
<glyph unicode="G" horiz-adv-x="1215" d="M0 761q0 287 167 471q174 191 464 191h195v-392q-79 79 -204 79q-10 0 -21 -1q-133 -7 -219 -105q-88 -100 -88 -243t88 -239q85 -102 219 -106q13 -3 30 -3q27 0 62 7v235v116q0 126 -75 127v17q0 -10 66.5 -13.5t158.5 -3.5t158.5 3.5t66.5 13.5v-17q-72 0 -71 -123 v-536q0 -119 71 -120v-17h-242h-195h-13q-283 3 -451 192q-167 181 -167 467zM51 761q0 -123 36 -232t118 -198q150 -174 413 -177h2h1h335q-10 27 -11 85v536q0 51 7 75q-38 -3 -109 -3h-54.5t-54.5 3q10 -41 10 -79v-351q0 -44 -41 -48q-34 -10 -102 -10q-160 10 -260 126 q-102 116 -102 273t102 277q65 68 137 99h-31q-61 -31 -112 -89q-106 -123 -106 -287q0 -41 -82 -41t-82 41q0 222 109 376h-17q-106 -157 -106 -376zM177 212q167 -157 437 -161h2h2h450q55 0 55 51v17q51 0 51 -51v-17q0 -51 -51 -51h-454h-1h-2q-304 3 -485 208zM345 761 q0 123 75 208q79 82 184 89h10q112 0 174 -65q17 -17 35 -17q12 0 24 7q34 10 34 48v392q51 0 51 -51v-392q0 -17 -10 -28q-24 -3 -79 -3h-7q-65 58 -171 58h-10q-106 -7 -184 -89q-75 -85 -75 -208q0 -113 65 -191q-14 10 -41 37q-75 82 -75 205zM618 843h4h3q13 -7 13 -41 q-20 14 -20 41zM751 836q31 -3 92 -3t92 3q-3 -20 -3 -61v-14q0 -31 -87 -34h-13q-74 0 -74 34v10q0 24 -7 65zM761 1137l14 -7v7h-14zM1048 239v536q0 10 1.5 35.5t12.5 32.5h3h3q55 0 55 55v17q51 0 51 -51v-21q0 -51 -51 -51h-7h-3q-10 -7 -12 -32.5t-2 -35.5v-536v-10 v-18q-10 10 -31 11h-3t-3 3q-10 3 -12 29t-2 36z" />
<glyph unicode="H" horiz-adv-x="1256" d="M0 51q10 0 24 7q14 0 32.5 1.5t32.5 5.5q31 0 66.5 1.5t69.5 1.5q31 0 67 -1.5t70 -1.5q10 -3 29 -5t36 -2q14 -7 24 -7q51 0 51 51v17q51 0 51 -51v-17q0 -51 -51 -51q-10 0 -24 7q-14 0 -34.5 1.5t-30.5 5.5q-34 0 -68 1.5t-69 1.5q-34 0 -69.5 -1.5t-66.5 -1.5 q-14 -3 -32.5 -5t-28.5 -2q-20 -7 -28 -7q-51 0 -51 51zM0 102v17q72 0 72 123v1041q0 123 -72 123v17q0 -10 66.5 -13.5t158.5 -3.5t157 4t69 13v-17q-72 0 -72 -119v-369h355v365q0 123 -75 123v17q0 -10 66.5 -13.5t158.5 -3.5t158.5 4t66.5 13v-17q-72 0 -71 -119v-1048 q0 -119 71 -120v-17q0 7 -66.5 12t-158.5 5t-158.5 -5t-66.5 -12v17q75 0 75 123v366h-355v-369q0 -119 72 -120v-17q0 7 -67 12t-159 5t-158.5 -5t-66.5 -12zM0 1355q3 0 7 -3q6 -4 13 -38q-20 14 -20 41zM116 167q38 3 109 4q72 0 110 -4q-7 24 -7 72v369q0 51 51 51h355 q51 0 51 -51v-366q0 -20 -7 -75q34 3 106 4q71 -1 109 -4q-7 24 -7 72v898h-13v-376q0 -41 -131.5 -59.5t-288.5 -18.5t-286.5 18.5t-129.5 59.5v376h-14v-895q0 -48 -7 -75zM314 918q0 -65 65 -65h355q65 0 65 65v219h-14v-219q0 -51 -51 -51h-355q-51 0 -51 51v219h-14 v-219zM430 239v317h253v-51h-202v-317v-10v-18q-10 10 -30 11h-3q-4 0 -4 3q-10 3 -12 29t-2 36zM430 969v318q0 7 1.5 32.5t12.5 32.5l4 2l3 1q51 0 51 51v17q51 0 51 -51v-17q0 -51 -51 -51l-4 -2l-3 -2q-10 -7 -12 -32.5t-2 -35.5v-263h-51zM659 51q14 0 27 7 q10 0 29 1.5t33 5.5q31 0 66.5 1.5t69.5 1.5t68 -1.5t69 -1.5q10 -3 28.5 -5t35.5 -2q14 -7 24 -7q55 0 55 51v17q51 0 51 -51v-17q0 -51 -51 -51h-3q-10 0 -24 7q-14 0 -34.5 1.5t-30.5 5.5q-34 0 -68.5 1.5t-68.5 1.5t-68 -1.5t-68 -1.5q-10 -3 -30.5 -5t-31.5 -2 q-14 -7 -27 -7q-51 0 -51 51zM659 1355q7 0 7 -3q13 -7 13 -41q-20 14 -20 44zM1089 239v1048q0 7 1.5 32.5t12.5 32.5l3 2l3 1q55 0 55 51v17q51 0 51 -51v-17q0 -51 -51 -51q-3 0 -6 -2l-4 -2q-10 -7 -12 -32.5t-2 -35.5v-1044v-10v-18q-10 10 -31 11h-3t-3 3 q-10 3 -12 29t-2 36z" />
<glyph unicode="I" horiz-adv-x="617" d="M0 51q7 0 27 7q10 0 29 1.5t33 5.5q31 0 66.5 1.5t69.5 1.5t68.5 -1t68.5 -2q10 -3 30.5 -5t34.5 -2q14 -7 24 -7h3q51 0 51 51v17q51 0 51 -51v-17q0 -51 -51 -51h-3q-10 0 -24 7q-14 0 -34.5 1.5t-30.5 5.5q-34 0 -68 1.5t-69 1.5q-34 0 -68 -1.5t-68 -1.5 q-10 -3 -30.5 -5t-30.5 -2q-14 -7 -28 -7q-51 0 -51 51zM0 102v17q75 0 75 123v519v522q0 123 -75 123v17q0 -10 66.5 -13.5t158.5 -3.5t159 4t67 13h3v-17q-75 0 -75 -119v-1048q0 -119 75 -120v-17h-3q0 7 -67 12t-159 5t-158.5 -5t-66.5 -12zM0 1355q7 0 7 -3 q13 -7 13 -41q-20 14 -20 44zM116 167q38 3 109 4q72 -1 110 -4q-7 24 -7 72v898h-14v-376q0 -37 -87 -39q-3 0 -6 -1q-81 0 -81 40v376h-14v-895q0 -34 -10 -75zM430 239v1048q0 7 1.5 32.5t12.5 32.5q3 3 10 3q51 0 51 51v17q51 0 51 -51v-17q0 -51 -51 -51q-3 0 -7 -2 l-3 -2q-10 -7 -12 -32.5t-2 -35.5v-1044v-10v-18q-10 10 -27 11q-7 0 -10 3q-10 3 -12 29t-2 36z" />
<glyph unicode="J" horiz-adv-x="965" d="M0 65h2h1h17q48 3 48 54v3v11q3 0 24 -10h4q126 -72 303 -72h14h17h4h3h379q51 0 51 51v21q51 0 51 -51v-21q0 -51 -51 -51h-379h-2h-5h-17h-13q-171 0 -304 72h-2h-2q-20 10 -24 10v-10v-4q0 -51 -47 -54h-17q-20 -7 -38 13q-17 17 -17 38zM0 116v10q3 0 8.5 68.5 t5.5 163.5q0 96 -5.5 164.5t-8.5 68.5v10h17v-17q0 -65 126 -123q123 -65 243 -65q14 0 27.5 1.5t23.5 1.5v17v234v237v222v178q0 119 -72 119v17q0 -10 66.5 -13.5t159.5 -3.5q92 0 158.5 3.5t66.5 13.5v-17q-75 0 -75 -119v-11v-3v-1020q0 -130 75 -130v-21h-239h-140 h-18.5h-19.5q-150 0 -280 65q-34 17 -51 17q-51 0 -51 -68h-17zM65 236h1h2q27 0 75 -21q106 -61 256 -61q24 0 38 3q7 0 10 -3h256q-14 41 -14 99v884h-13v-376q0 -34 -87 -34t-87 34v376h-14v-368.5v-369.5q0 -44 -41 -47q-20 -7 -61 -7q-130 0 -267 68q-34 20 -54 31 q0 -20 1.5 -42.5t1.5 -43.5q0 -31 -1.5 -61.5t-1.5 -60.5zM68 584v17q51 0 51 -51v-18q-27 20 -34 28q-17 7 -17 24zM365 1355l2 -1q2 -2 5 -2q7 -4 14 -38q-20 14 -21 41zM792 253v1020v3v7v2v5q0 10 3.5 32.5t13.5 29.5q0 3 7 3q51 0 51 51v17q51 0 51 -51v-17 q0 -51 -51 -51q-3 0 -5 -2l-2 -2q-10 -7 -11.5 -29t-1.5 -32v-5v-2v-6v-4v-1021v-17v-20q-10 10 -31 10h-4h-3q-10 3 -13.5 35.5t-3.5 43.5z" />
<glyph unicode="K" horiz-adv-x="1242" d="M0 51q7 0 27 7q10 0 29 1.5t33 5.5q31 0 66.5 1.5t69.5 1.5t68.5 -1.5t68.5 -1.5q10 -3 30.5 -5t34.5 -2q14 -7 24 -7h3q51 0 51 51v17q51 0 51 -51v-17q0 -51 -51 -51h-3q-10 0 -24 7q-14 0 -34.5 1.5t-30.5 5.5q-34 0 -68 1.5t-69 1.5q-34 0 -68 -1.5t-68 -1.5 q-10 -3 -30.5 -5t-30.5 -2q-14 -7 -28 -7q-51 0 -51 51zM0 102v17q75 0 75 123v144v222v310v249v116q0 123 -75 123v17q0 -10 66.5 -13.5t158.5 -3.5t159 4t67 13h3v-17q-75 0 -75 -119v-379l249 386q24 41 24 71q0 41 -44 41v17q0 -10 70 -13.5t172 -3.5q99 0 169 4t70 13 v-17q-34 0 -72 -37q-14 -14 -51 -79l-321 -522l328 -532q24 -48 51 -79q31 -38 72 -38v-17q0 7 -72 12t-171 5t-169 -5t-70 -12v17q44 0 45 41q0 31 -28 72l-252 399v-392q0 -119 75 -120v-17h-3q0 7 -67 12t-159 5t-158.5 -5t-66.5 -12zM0 1355q7 0 7 -3q13 -7 13 -41 q-20 14 -20 44zM116 167q38 3 109 4q72 -1 110 -4q-7 24 -7 72v392q0 34 34 48q10 3 19 3q26 0 39 -23l256 -400q27 -48 34 -92q34 0 70 2t73 2h48h51q-10 7 -15 17t-9 20l-327 533q-17 27 0 54l208 342h-14l-208 -335q-14 -20 -7 -41q1 -2 1 -4q0 -18 -62 -33 q-68 -16 -152 -20q-19 -1 -37 -1q-62 0 -118 9q-72 12 -72 49v376h-14v-895q0 -34 -10 -75zM314 908v229h14v-229q0 -44 34 -48q12 -4 21 -4q24 0 37 25l167 256h14l-168 -263q-20 -31 -52 -31q-11 0 -23 4q-44 10 -44 61zM430 239v215l51 -79v-187v-10v-18q-10 10 -27 11 q-7 0 -10 3q-10 3 -12 29t-2 36zM430 1082v205q0 7 1.5 32.5t12.5 32.5q3 3 10 3q51 0 51 51v17q51 0 51 -51v-17q0 -51 -51 -51q-3 0 -7 -2l-3 -2q-10 -7 -12 -32.5t-2 -35.5v-68zM614 51q10 0 24 7q14 0 34.5 1.5t34.5 5.5q38 0 73.5 1.5t72.5 1.5q38 0 74 -1.5t77 -1.5 q10 -3 30.5 -5t37.5 -2q14 -7 24 -7q51 0 51 51v17q51 0 51 -51v-17q0 -51 -51 -51q-10 0 -24 7q-17 0 -37.5 1.5t-30.5 5.5q-41 0 -77 1.5t-70 1.5q-41 0 -77 -1.5t-73 -1.5q-14 -3 -34.5 -5t-30.5 -2q-20 -7 -27 -7q-51 0 -52 51zM703 768l307 495q20 34 31 48q0 3 5 10 t9 14q31 20 34 20q51 0 51 51v17q51 0 51 -51v-17q0 -51 -51 -51q-10 0 -31 -21q-10 -10 -17 -23q-10 -14 -30 -48l-308 -495l314 -505q14 -27 24 -41q-17 3 -30 20q-10 14 -24 34.5t-21 37.5z" />
<glyph unicode="L" horiz-adv-x="1013" d="M0 51h860q20 0 38 17q14 14 13 41q-7 41 -7 86v6q0 48 1 96v92t6 96v1v6q20 0 38 -18q17 -20 14 -41q-7 -48 -7 -95.5v-91.5v-96t7 -92q3 -24 -14 -41t-38 -17h-860q-51 0 -51 51zM0 102v17q75 0 75 123v1045q0 119 -75 119v17q0 -10 66.5 -13.5t158.5 -3.5t159 4t67 13 v-17q-72 0 -72 -119v-437v-434h351q119 0 120 76h10q-3 -31 -5.5 -82.5t-1.5 -112.5q0 -61 1.5 -112.5t5.5 -82.5h-860zM0 1355q7 0 7 -3q13 -7 13 -38q-20 20 -20 41zM113 154h693q-3 34 -3.5 69.5t-0.5 73.5v36v39q-38 -10 -72 -10h-351q-51 0 -51 54v721h-14v-376 q-2 -41 -88 -43h-6q-80 0 -80 43v376h-14v-895q0 -48 -13 -88zM430 468v409.5v409.5q0 7 1.5 32.5t12.5 32.5l4 2l3 1q51 0 51 51v17q51 0 51 -51v-17q0 -51 -51 -51l-4 -2l-3 -2q-10 -7 -12 -32.5t-2 -35.5v-764h-51z" />
<glyph unicode="M" horiz-adv-x="1437" d="M0 51q10 0 24 7q14 0 32.5 1.5t32.5 5.5q31 0 66.5 1.5t69.5 1.5q31 0 65 -1.5t72 -1.5q10 -3 27 -5t31 -2q20 -7 27 -7q51 0 51 51v17q51 0 52 -51v-17q0 -51 -52 -51q-10 0 -24 7q-17 0 -34 1.5t-27 5.5q-34 0 -70 1.5t-67 1.5q-34 0 -69.5 -1.5t-66.5 -1.5 q-14 -3 -32.5 -5t-28.5 -2q-20 -7 -28 -7q-51 0 -51 51zM0 102v17q72 0 72 120v3v1041q0 119 -69 120v14q51 -10 222 -11q164 0 222 11v-11q-41 0 -41 -41q0 -27 21 -78l215 -505l215 505q20 44 20 78q0 38 -41 38v14q55 -10 222 -11q167 0 225 11v-11q-75 0 -75 -119v-1048 q0 -119 75 -120v-17q0 7 -64.5 12t-156.5 5t-159 -5t-67 -12v17q72 1 72 120v3v461l-253 -601h-27l-253 601v-464q0 -119 72 -120v-17q0 7 -65 12t-157 5t-158.5 -5t-66.5 -12zM3 1352h2h2q6 -4 13 -38q-17 17 -17 38zM116 167q38 3 109 4q68 0 106 -4q-7 24 -7 72v464 q0 44 41 51h7q36 0 51 -30l219 -519l222 519q9 30 45 30h9q44 -7 45 -51v-461v-3q-1 -38 -11 -72q38 3 110 4q68 0 102 -4q-7 48 -7 72v891h-14v-372q0 -49 -57 -49q-7 0 -16 1q-73 7 -125 48q-14 7 -23 10q-27 3 -48 -10q-38 -35 -102 -35q-6 1 -12 1q-62 3 -62 25q0 4 2 9 l160 372h-13l-158 -369q-17 -34 -47 -34q-38 0 -48 34l-157 369h-14l157 -372q2 -5 2 -10q0 -23 -60 -31q-12 -2 -22 -2q-56 0 -90 43q-24 14 -48 10q-10 -3 -24 -10q-44 -38 -122 -44q-9 -1 -17 -1q-62 0 -62 45v372h-14v-891q0 -48 -7 -72zM427 239q0 -10 1.5 -36 t11.5 -29q0 -3 7 -3q20 0 31 -11v17v11v140l-51 119v-208zM457 1355q41 10 41 51v11q20 0 34 -14q17 -17 18 -38v-10q0 -41 -41 -51q0 -14 6.5 -27.5t10.5 -23.5l129 -308l-13 -34l-168 393q-3 10 -10 23.5t-7 27.5zM625 51l6 -20q10 -31 48 -31h28q31 0 47 31l31 75v13 q0 31 24 45l48 112v175l-154 -369q-20 -31 -48 -31h-27h-3zM836 51q7 0 28 7q10 0 28.5 1.5t32.5 5.5q31 0 66.5 1.5t70.5 1.5q31 0 65 -1.5t68 -1.5q10 -3 28.5 -5t32.5 -2q14 -7 27 -7q51 0 52 51v17q51 0 51 -51v-17q0 -51 -51 -51q-14 0 -28 7q-14 0 -32.5 1.5 t-28.5 5.5q-34 0 -68.5 1.5t-64.5 1.5q-34 0 -70 -1.5t-67 -1.5q-14 -3 -32.5 -5t-28.5 -2q-20 -7 -28 -7q-51 0 -51 51zM1260 239v1048q0 7 1.5 32.5t11.5 32.5q3 3 10 3q51 0 52 51v11q20 0 34 -14q17 -17 17 -38v-10q0 -51 -51 -51q-3 0 -5 -2l-2 -2q-10 -7 -13.5 -32.5 t-3.5 -35.5v-1044q0 -3 1.5 -10t1.5 -18q-17 10 -31 11q-7 0 -10 3q-10 3 -11.5 29t-1.5 36z" />
<glyph unicode="N" horiz-adv-x="1170" d="M0 51q7 0 27 7q10 0 29 1.5t29 5.5q31 0 65 1.5t68 1.5q31 0 65 -1.5t69 -1.5q10 -3 28.5 -5t32.5 -2q14 -7 24 -7q51 0 51 51v17q55 0 55 -51v-17q0 -51 -55 -51q-10 0 -24 7q-14 0 -32.5 1.5t-28.5 5.5q-34 0 -68.5 1.5t-64.5 1.5q-34 0 -68.5 -1.5t-64.5 -1.5 q-10 -3 -29 -5t-29 -2q-20 -7 -28 -7q-51 0 -51 51zM0 102v17q72 0 72 123v1035q0 122 -71 122h-1v18q0 -7 63 -12.5t155 -5.5t155.5 5.5t63.5 12.5v-18q-68 0 -68 -119v-27l293 -465v489q0 122 -70 122h-1v18q0 -7 63 -12.5t155 -5.5t155 5.5t63 12.5h4v-18q-75 0 -75 -119 v-1041q0 -119 75 -120v-17h-4q0 7 -63 12t-155 5t-155 -5t-63 -12v17q72 0 71 123v24l-293 464v-491q0 -119 68 -120v-17q0 7 -63 12t-156 5q-92 0 -155 -5t-63 -12zM0 1348h2h5q3 -3 10 -37q-17 17 -17 37zM116 167q34 3 102 4q24 0 51.5 -2t54.5 -2q-7 24 -7 72v491 q0 38 35 52h8q35 0 50 -24l297 -461q7 -20 6 -31v-24q0 -48 -6 -75q34 3 102 4q68 -1 106 -4q-10 34 -10 72v891h-11v-372q0 -33 -94 -33q-4 1 -8 1q-81 1 -81 20q0 5 6 12q10 14 10 30v342h-14v-342q0 -38 -37 -47q-11 -4 -21 -4q-23 0 -37 24l-236 369h-13l239 -372 q3 -5 3 -9q0 -21 -70 -29q-15 -2 -28 -1q-61 0 -86 39l-4 7q-25 31 -55 31q-10 0 -20 -4q-24 -7 -41 -34q-3 -34 -87 -38h-12q-71 0 -71 38v372h-14v-888q0 -20 -7 -75zM420 239v314l51 -79v-286v-12v-16q-10 10 -34 11h-2t-2 3q-10 3 -11.5 29t-1.5 36zM420 1266v14 q0 7 1.5 34t11.5 34h2h2q51 0 51 51v18q55 0 55 -52v-17q0 -51 -55 -51h-2h-1q-10 -7 -12 -34t-2 -34v-14l140 -218v-31zM591 51q7 0 27 7q10 0 29 1.5t29 5.5q31 0 65 1.5t68 1.5q31 0 65 -1.5t68 -1.5q10 -3 29 -5t33 -2q14 -7 23 -7h4q51 0 51 51v17q51 0 51 -51v-17 q0 -51 -51 -51h-3q-10 0 -24 7q-14 0 -32.5 1.5t-29.5 5.5q-34 0 -68 1.5t-65 1.5q-34 0 -66.5 -1.5t-63.5 -1.5q-14 -3 -32.5 -5t-28.5 -2q-14 -7 -27 -7q-51 0 -51 51zM591 1348h1h5q11 -10 11 -41q-17 17 -17 41zM1010 239v1041q0 7 2 34t12 34h2h5q51 0 51 51v18 q51 0 51 -52v-17q0 -51 -51 -51h-5h-2q-10 -10 -11.5 -35.5t-1.5 -32.5v-1041v-12v-16q-10 10 -31 11q-7 0 -7 3q-10 3 -12 29t-2 36z" />
<glyph unicode="O" horiz-adv-x="1378" d="M0 782q0 280 182.5 479.5t438.5 199.5t438.5 -199.5t182.5 -479.5q0 -283 -182.5 -481.5t-438.5 -198.5t-438.5 198t-182.5 482zM51 782q0 -174 85.5 -329.5t242.5 -237.5q112 -61 242 -61t243 61q157 82 242 237.5t85 329.5q0 191 -99 355h-17q102 -160 103 -355 q-16 -63 -103 -63h-13q-93 5 -93 57v6q0 116 -66.5 215t-168.5 140h-48q119 -27 194.5 -129.5t75.5 -225.5q0 -143 -95.5 -252.5t-239.5 -109.5q-147 0 -240.5 109t-93.5 253q0 123 75 225t198 130h-48q-109 -41 -174 -140t-65 -215q-7 -71 -102 -71q-2 1 -4 1 q-99 2 -102 70q0 195 102 355h-17q-99 -164 -99 -355zM191 218q55 -51 140 -95q133 -72 290 -72t290 72q181 92 282 273t101 386q0 294 -191 512q116 -106 179 -254.5t63 -309.5q0 -205 -99 -385.5t-283 -272.5q-134 -72 -291 -72t-290 72q-106 55 -191 146zM338 782 q0 -130 82 -219t201 -89q116 0 200 89t84 219q0 126 -84 218t-200 92q-119 0 -201 -92t-82 -218zM389 782q0 96 65 177.5t167 81.5q110 0 178 -96q-51 41 -127 41q-102 0 -167 -80t-65 -176t55 -163q-106 75 -106 215z" />
<glyph unicode="P" horiz-adv-x="1088" d="M0 51q7 0 27 7q10 0 29 1.5t33 5.5q31 0 66.5 1.5t69.5 1.5t68.5 -1t68.5 -2q10 -3 30.5 -5t34.5 -2q14 -7 24 -7h3q51 0 51 51v17q51 0 51 -51v-17q0 -51 -51 -51h-3q-10 0 -24 7q-14 0 -34.5 1.5t-30.5 5.5q-34 0 -68 1.5t-69 1.5q-34 0 -68 -1.5t-68 -1.5 q-10 -3 -30.5 -5t-30.5 -2q-14 -7 -28 -7q-51 0 -51 51zM0 102v17q75 0 75 123v144v222v310v249v116q0 123 -75 123v17h379h27h45h3q133 -7 218 -30q126 -51 202 -161q78 -131 78 -253q0 -140 -78 -262q-72 -106 -174 -147t-215 -44h-39h-40h-27v-287q0 -119 75 -120v-17h-3 q0 7 -67 12t-159 5t-158.5 -5t-66.5 -12zM0 1355q7 0 7 -3q13 -7 13 -41q-20 14 -20 44zM116 167q38 3 109 4q72 0 110 -4q-7 24 -7 72v287q0 51 51 51h27q51 0 75 3q102 0 194.5 36t153.5 128q72 113 72 232q0 79 -37 161h-14q37 -80 37 -157q0 -96 -51 -198 q-27 -33 -81 -33q-28 0 -64 9q-95 24 -131 24h-7q89 24 123 123q8 34 8 68.5t-8 70.5q-20 55 -62 93h-23q48 -31 71 -96q10 -34 10 -67.5t-10 -65.5q-27 -92 -119 -116h-2h-2q-14 -3 -30.5 -5t-30.5 -2h-49.5h-49.5q-51 0 -51 51v277q0 17 3 24h-14q-3 -7 -3 -24v-277 q0 -41 31 -54q4 -5 4 -9q-1 -21 -95 -31q-22 -2 -40 -2q-74 0 -74 42v355h-14v-895q0 -34 -10 -75zM379 836q109 0 150 7q65 14 82 82q10 26 10 50.5t-10 48.5q-17 65 -82 82q-41 7 -150 7v-277zM430 239v235h25.5h29.5q133 3 245.5 51t184.5 164q89 137 89 287 q0 143 -89 284q-20 31 -38 54q55 -51 89 -106q89 -137 89 -283q0 -157 -89 -287q-72 -116 -184.5 -163.5t-242.5 -51.5h-32.5h-25.5v-235v-10v-18q-10 10 -27 11q-7 0 -10 3q-10 3 -12 29t-2 36zM430 887v171h22h22q31 0 45 -3q34 -10 44 -45v-4v-2q-10 3 -37 3h-22h-23 v-116h-7q-10 0 -22 -2t-22 -2z" />
<glyph unicode="Q" horiz-adv-x="1382" d="M0 744q0 280 182.5 479.5t438.5 199.5t438.5 -199.5t182.5 -479.5q0 -205 -95 -362h95q-3 -34 -4.5 -85t-1.5 -109q0 -116 6 -191h-6q0 71 -117 71h-3h-259h-168q-24 -3 -68 -3t-65 3h-3q-236 27 -394.5 218.5t-158.5 457.5zM51 744q0 -174 85.5 -329.5t242.5 -237.5 q82 -51 181 -58q20 -3 61 -3t62 3h1h5h427h12q38 0 56 -6v35.5v39.5v68.5t4 71.5h-41q-31 0 -44 27q-17 24 0 51q88 152 88 334q0 195 -99 359h-17q102 -160 103 -355q-6 -60 -72 -60q-17 0 -38 4q-99 18 -99 54q0 118 -66.5 217t-168.5 140h-48q119 -27 194.5 -129.5 t75.5 -225.5q0 -181 -130 -287q-14 -14 -38 -13q-154 7 -256 112v-82q0 -31 -27 -44q-31 -14 -51 3q-82 48 -124.5 133.5t-42.5 177.5q0 123 75 225.5t198 129.5h-48q-109 -41 -174 -140t-65 -215q0 -38 -104 -44q-12 -1 -22 -1q-82 0 -82 45q0 195 102 355h-17 q-99 -164 -99 -355zM191 181q55 -51 140 -96q106 -55 219 -68q24 -3 71 -3q48 0 72 3h423q7 0 32.5 -3.5t32.5 -10.5q3 -3 3 -6v-28h-12h-5h-423q-24 -3 -72 -3t-71 3q-123 17 -219 65q-102 48 -191 147zM338 744q0 -181 143 -270v137q48 0 72 -3q44 -51 100.5 -80.5 t138.5 -29.5q113 89 113 246q0 126 -84 216.5t-200 90.5q-119 0 -201 -90.5t-82 -216.5zM389 744q0 96 65 176t167 80q106 0 178 -92q-51 41 -127 41q-102 0 -167 -80.5t-65 -175.5q0 -10 2 -18.5t2 -15.5h-14v-58q-41 65 -41 143zM1103 1256q116 -109 179 -257.5t63 -305.5 q0 -147 -45 -270v10h-68q61 143 62 311q0 294 -191 512zM1236 -55h64l-6 55q-7 41 -7 90.5v97.5v92t7 95v7q24 0 41 -17q14 -27 10 -41q-3 -48 -5 -95.5t-2 -91.5q0 -51 1.5 -97.5t5.5 -90.5q3 -14 -10 -41q-14 -14 -41 -14h-7q-51 0 -51 51z" />
<glyph unicode="R" horiz-adv-x="1225" d="M0 51q7 0 27 7q10 0 29 1.5t33 5.5q31 0 66.5 1.5t69.5 1.5t68.5 -1.5t68.5 -1.5q10 -3 30.5 -5t34.5 -2q14 -7 24 -7h3q51 0 51 51v17q51 0 51 -51v-17q0 -51 -51 -51h-3q-10 0 -24 7q-14 0 -34.5 1.5t-30.5 5.5q-34 0 -68 1.5t-69 1.5q-34 0 -68 -1.5t-68 -1.5 q-10 -3 -30.5 -5t-30.5 -2q-14 -7 -28 -7q-51 0 -51 51zM0 102v17q75 0 75 123v144v222v310v249v116q0 123 -75 123v17h379h27h45h3q133 -7 218 -30q126 -51 202 -161q78 -131 78 -253q0 -140 -78 -262q-51 -79 -123 -120l222 -361q24 -48 51 -79q31 -38 72 -38v-17 q0 7 -72 12t-171 5t-169 -5t-70 -12v17q44 0 45 41q0 31 -28 72l-187 294h-34h-31v-287q0 -119 75 -120v-17h-3q0 7 -67 12t-159 5t-158.5 -5t-66.5 -12zM0 1355q7 0 7 -3q13 -7 13 -41q-20 14 -20 44zM116 167q38 3 109 4q72 0 110 -4q-7 24 -7 72v287q0 51 51 51h31h34 q27 0 44 -24l188 -294q27 -48 34 -92q34 0 70 2t73 2h48h51q-10 7 -15 17t-9 20l-221 362q-14 17 -7 38q3 20 24 30q58 34 105 106q72 113 72 232q0 79 -37 161h-14q37 -80 37 -157q0 -96 -51 -198q-17 -27 -70 -34q-31 -4 -62 -4q-22 0 -46 2q-54 5 -90 17t-15 19 q89 24 123 123q8 34 8 68.5t-8 70.5q-20 55 -62 93h-23q48 -31 71 -96q10 -34 10 -67.5t-10 -65.5q-27 -92 -119 -116h-2h-2q-14 -3 -30.5 -5t-30.5 -2h-49.5h-49.5q-51 0 -51 51v277q0 17 3 24h-14q-3 -7 -3 -24v-277q0 -41 31 -54q20 -14 -9 -26q-30 -12 -74 -17 q-16 -2 -32 -2q-27 -1 -51 5q-39 8 -39 40v355h-14v-895q0 -34 -10 -75zM379 836q109 0 150 7q65 14 82 82q10 26 10 50.5t-10 48.5q-17 65 -82 82q-41 7 -150 7v-277zM430 239v215l51 -79v-187v-10v-18q-10 10 -27 11q-7 0 -10 3q-10 3 -12 29t-2 36zM430 887v171h22h22 q31 0 45 -3q34 -10 44 -45v-4v-2q-10 3 -37 3h-22h-23v-116h-7q-10 0 -22 -2t-22 -2zM614 51q10 0 24 7q14 0 34.5 1.5t34.5 5.5q38 0 73.5 1.5t72.5 1.5q38 0 74 -1.5t77 -1.5q10 -3 30.5 -5t37.5 -2q14 -7 24 -7q51 0 51 51v17q51 0 51 -51v-17q0 -51 -51 -51q-10 0 -24 7 q-17 0 -37.5 1.5t-30.5 5.5q-41 0 -77 1.5t-70 1.5q-41 0 -77 -1.5t-73 -1.5q-14 -3 -34.5 -5t-30.5 -2q-20 -7 -27 -7q-51 0 -52 51zM819 580q58 48 96 109q89 137 89 287q0 143 -89 284q-21 30 -38 54q55 -51 89 -106q89 -137 89 -283q0 -157 -89 -287q-38 -61 -96 -109 l198 -317q14 -27 24 -41q-17 3 -30 20q-10 14 -24 34.5t-21 37.5z" />
<glyph unicode="S" horiz-adv-x="1034" d="M0 1062q0 198 147 300q82 62 198 84q60 12 116 11q53 0 102 -10q31 -10 60 -5t29 50l17 6v-13q-3 0 -3 -195q0 -96 3 -162q3 -63 9 -63h1v-14l-17 -3v17q0 55 -102 77q-78 17 -121 17q-13 0 -23 -2q-85 -24 -85 -109q0 -61 99 -106q38 -14 75.5 -25.5t78.5 -22.5 q160 -55 225 -140q72 -102 72 -256q0 -198 -144 -300q-126 -96 -321 -96q-150 0 -279 65q-34 17 -52 17q-51 0 -51 -68h-17v10q3 0 8.5 68.5t5.5 163.5q0 96 -5.5 164.5t-8.5 68.5v10h17v-17q0 -65 126 -123q123 -65 243 -65q147 0 147 116q0 61 -99 106q-41 10 -78.5 23.5 t-75.5 27.5q-167 55 -225 140q-72 102 -72 253zM17 65h1h2h18q48 3 47 54v5v9q3 0 24 -10q133 -72 307 -72q205 0 352 106q164 116 164 341q0 171 -82 287l-4 1q-3 2 -3 6q38 -31 58 -62q85 -116 85 -283q0 -218 -167 -345q-79 -58 -169 -80t-182 -22q-177 0 -304 72h-4 q-20 10 -23 10v-10v-4q0 -51 -48 -54h-17q-20 -7 -38 13q-17 17 -17 38zM51 1048q3 -130 65 -208q31 -48 89 -77t109 -46q38 -14 75.5 -27.5t78.5 -23.5h2h1q48 -20 89 -58t41 -96q0 -92 -58 -129.5t-140 -37.5q-130 0 -266 68q-34 20 -55 31v-42.5v-43.5v-61.5v-60.5h3 q38 0 75 -21q106 -61 256 -61q171 0 291 85q122 91 122 256q0 61 -13.5 119t-47.5 110q-34 41 -92 71.5t-109 47.5q-41 10 -77 24t-74 27h-4h-2q-51 20 -90.5 58t-39.5 96h-14q0 -61 43 -102t97 -62l2 -2l2 -1q38 -14 75 -26t78 -22q48 -20 104.5 -47.5t86.5 -68.5 q9 -21 9 -36q1 -46 -75 -46q-100 0 -336 82l-35 13q-51 14 -105.5 43t-85.5 74q-61 79 -61 201h-14zM85 584v17q51 0 52 -51v-18q-27 20 -35 28q-17 7 -17 24zM89 717q41 -34 90.5 -58t100.5 -41h3q34 -10 72 -24t78 -24q14 -10 39.5 -24t25.5 -34q-14 7 -13 7 q-41 10 -78.5 22t-71.5 26h-2h-2q-65 20 -133 56t-109 94zM382 1048q0 48 45 58q20 3 51 -2t51 -5q10 -3 41 -13.5t41 -20.5v-17v-5v-5l-31 10q-20 0 -51 3.5t-51 3.5q-41 -10 -41 -58q-20 10 -37.5 22t-17.5 29zM662 997h6.5h10.5l17 7q34 10 34 47v14q0 17 -6 24 q-3 20 -4 61q-3 34 -3 70v70v63.5v63.5q0 10 -2 23.5t2 23.5q3 7 3 21v13q17 0 28 -10q24 -17 23 -41v-13q0 -14 -3 -21q-3 -14 -1.5 -27.5t1.5 -20.5v-64.5v-61.5v-72t3 -68v-30.5t4 -30.5q7 -7 7 -24v-14q0 -38 -34 -48l-18 -7q-31 -7 -47 7q-20 14 -21 45z" />
<glyph unicode="T" horiz-adv-x="1006" d="M0 983h7q55 0 54 51v4v6q7 10 32.5 12t36.5 2h95v-51h-44q-10 0 -36 -1.5t-32 -12.5v-7v-3q0 -51 -52 -51h-10q-20 0 -37 17q-14 14 -14 34zM0 1034q0 31 3.5 82t3.5 113q0 61 -3.5 112.5t-3.5 81.5h853q-3 -31 -4.5 -82t-1.5 -112t1.5 -112.5t4.5 -82.5h-6q0 75 -120 75 h-147v-870q0 -119 72 -120v-17q0 7 -66.5 12t-158.5 5t-159 -5t-67 -12v17q75 0 75 123v867h-146q-123 0 -123 -75h-7zM58 1154q34 10 72 10h146q51 0 52 -55v-867q0 -34 -11 -75q38 3 110 4q72 0 109 -4q-7 24 -7 72v870q0 55 51 55h147q34 0 72 -10q-3 27 -4 75v7h-10v-7 v-31v-27q-20 3 -58 3h-147q-65 0 -65 -65v-348q0 -41 -87 -41t-87 41v348q0 65 -65 65h-146q-41 0 -58 -3v27.5v30.5v7h-14v-7v-37.5v-37.5zM201 51q7 0 28 7q10 0 28.5 1.5t32.5 5.5q31 0 67 1.5t70 1.5t68 -1l68 -2q10 -3 30.5 -5t34.5 -2q14 -7 24 -7q55 0 55 51v17 q51 0 51 -51v-17q0 -51 -51 -51h-4q-10 0 -24 7q-14 0 -32.5 1.5t-28.5 5.5q-38 0 -72 1.5t-68 1.5t-68.5 -1.5t-68.5 -1.5q-10 -3 -30.5 -5t-30.5 -2q-14 -7 -27 -7q-51 0 -52 51zM631 239v819h96q10 0 34 -1.5t31 -12.5q3 -3 3 -10q0 -14 7 -27h-17h-7h-95v-819v-12v-16 q-10 10 -31 11h-4q-3 0 -3 3q-10 3 -12 29t-2 36zM847 983h6q24 0 41 17q14 14 11 41q-3 44 -3.5 92t-0.5 96v92t4 96q3 3 3 6q20 0 37 -17q14 -14 14 -41q-7 -48 -7 -95.5v-91.5v-97.5t7 -94.5q0 -24 -14 -37q-17 -17 -37 -17h-10q-51 0 -51 51z" />
<glyph unicode="U" horiz-adv-x="1324" d="M0 1355q7 0 10 -3q10 -7 17 -41q-27 10 -27 44zM0 1406v17q0 -10 66.5 -13.5t158.5 -3.5t159 4t67 13h3v-17q-75 0 -75 -119v-656q0 -130 95 -194q51 -34 113 -34q58 0 113 34q96 65 95 194v656q0 119 -75 119v17q0 -10 66.5 -13.5t158.5 -3.5t159 4t67 13h3v-17 q-44 0 -65 -41q-13 -25 -13 -75v-7v-559q0 -167 -34 -280q-38 -119 -147 -215q-147 -126 -328 -127q-184 0 -328 127q-106 89 -146 215q-34 96 -34 280v559q0 123 -79 123zM130 724q0 -65 5 -135t25 -128q38 -113 134 -195q132 -112 290 -112h3q157 0 294 112q99 89 133 195 q17 58 22 128t5 135v413h-10v-376q-3 -44 -87 -44t-84 44v376h-13v-506q0 -157 -120 -235q-75 -44 -140 -44q-75 0 -140 44q-119 75 -119 235v506h-14v-376q-3 -43 -82 -43h-5q-84 2 -84 43v376h-13v-413zM218 198q0 -3 3.5 -6.5t7.5 -3.5q164 -137 358 -137q195 0 358 137 q119 99 168 242q20 65 27 143.5t7 150.5v559q0 41 10 58q3 14 17 14q51 0 51 51v17q51 0 52 -51v-17q0 -51 -52 -51q-14 0 -17 -14q-10 -17 -10 -58v-560q0 -72 -7 -150t-27 -143q-44 -140 -164 -242q-164 -137 -362 -137q-201 0 -358 137q-38 31 -62 61zM430 631v656 q0 10 1.5 34t12.5 31q3 3 10 3q51 0 51 51v17q51 0 51 -51v-17q0 -51 -51 -51q-3 0 -7 -2l-3 -2q-10 -7 -12 -32.5t-2 -31.5v-656q0 -61 24 -99h-3q-72 44 -72 150zM720 1355q7 0 10 -3q4 -3 14 -41q-24 17 -24 44z" />
<glyph unicode="V" horiz-adv-x="1413" d="M0 1355q34 0 61 -55q-3 0 -7 2l-3 2q-51 0 -51 51zM0 1406v14q7 -7 70 -10.5t155 -3.5q85 0 148.5 4t73.5 10v-14q-38 0 -37 -41q0 -27 20 -78l17 -41l133 -311l65 -153l68 153l130 311l17 41q24 58 24 78q0 41 -41 41v17q0 -10 65 -13.5t157 -3.5t157 4t68 13v-17 q-79 0 -129 -123l-502 -1181h-28q-126 294 -252 589t-249 592q-51 123 -130 123zM246 1137q99 -236 198 -468t201 -468l399 936h-17l-157 -376q-21 -37 -84 -37q-8 0 -16 1q-65 4 -65 27q0 4 2 9l64 147l96 229h-14l-95 -222l-65 -154q-17 -34 -48 -34q-38 0 -48 34l-65 154 l-95 222h-14l99 -229l62 -147q3 -7 3 -13q-1 -28 -67 -28q-80 0 -100 41l-161 376h-13zM461 1355q41 10 41 51v14q14 0 20 -3q31 -17 31 -48v-14q0 -48 -41 -51q3 -31 17 -51l17 -38l116 -270l-17 -34l-17 45l-133 310v4l-17 37q-14 14 -17 48zM628 51h2h1h28q27 0 48 31 l501 1181q10 20 31 56t51 36q55 0 55 51v17l5 -1q5 -2 9 -2q38 -14 37 -51v-14q0 -51 -51 -51q-31 0 -53 -36t-32 -56l-502 -1181q-10 -31 -48 -31h-27q-34 0 -48 31z" />
<glyph unicode="W" horiz-adv-x="1966" d="M0 1355q34 0 61 -55q-3 0 -7 2l-3 2q-51 0 -51 51zM0 1406v14q7 -7 70 -10.5t155 -3.5q85 0 148.5 4t73.5 10v-14q-38 0 -37 -41q0 -27 20 -78l17 -41l133 -311l65 -153l68 153l130 311l17 41q24 58 24 78q0 41 -41 41v17q3 -10 102 -13l130 -331l62 -144l64 -153l69 153 l133 311l17 41q20 51 20 78q0 41 -41 41v17q3 -10 68.5 -13.5t157.5 -3.5q89 0 153.5 4t71.5 13v-17q-79 0 -130 -123l-505 -1181h-27l-263 622l-266 -622h-28q-126 294 -252 589t-249 592q-51 123 -130 123zM246 1137q99 -236 198 -468t201 -468l232 543q10 31 48 31 q31 0 48 -31l228 -543l400 936h-14l-160 -376q-26 -48 -82 -48q-12 0 -24 2q-59 9 -59 33q0 6 4 13l62 147l99 229h-17l-92 -222l-69 -154q-14 -34 -48 -34q-31 0 -47 34l-65 154l-62 147l-30 75h-14l34 -79v-3l62 -147l61 -147q-40 -14 -81 -13.5t-83 13.5q-17 27 -51 27 t-55 -27q-44 -16 -85 -15.5t-78 15.5l64 147l96 229h-14l-95 -222l-65 -154q-17 -34 -48 -34q-38 0 -48 34l-65 154l-95 222h-14l99 -229l62 -147q1 -3 1 -5q0 -20 -68 -31q-15 -2 -29 -2q-52 0 -68 38l-161 376h-13zM461 1355q41 10 41 51v14q14 0 20 -3q31 -17 31 -48v-14 q0 -48 -41 -51q3 -31 17 -51l17 -38l116 -270l-17 -34l-17 45l-133 310v4l-17 37q-14 14 -17 48zM628 51l7 -20q14 -31 48 -31h27q38 0 48 31l205 478l-38 85l-218 -512q-20 -31 -48 -31h-28h-1h-2zM1000 1410q34 -7 44 -34l130 -328l45 -103l-14 -34l-21 45l-61 143z M1184 51h2h2h27q34 0 48 31l505 1181q7 20 29 56t53 36q51 0 51 51v17l5 -1q5 -2 9 -2q38 -14 37 -51v-14q0 -51 -51 -51q-31 0 -51 -36t-31 -56l-505 -1181q-10 -31 -48 -31h-27q-34 0 -44 31z" />
<glyph unicode="X" horiz-adv-x="1146" d="M0 51q10 0 24 7q10 0 30.5 1.5t34.5 5.5h66.5h69.5h67h70q10 -3 30.5 -5t34.5 -2q14 -10 37 -3q38 10 38 47v17q0 38 -41 52q0 10 6.5 25.5t10.5 25.5l24 54l27 -54q0 -10 3.5 -17t6.5 -17l-10 -21v-3q-24 -17 -24 -45v-17q0 -38 34 -47q7 -3 14 -4q0 -38 -34 -48 q-27 -3 -41 4q-14 0 -34.5 1.5t-30.5 1.5q-34 0 -70 2t-67 2q-34 0 -69.5 -2t-66.5 -2q-14 0 -34.5 -1.5t-30.5 -1.5q-17 -7 -37 -4q-38 10 -38 48zM0 102v17q79 0 130 123l78 185q34 82 70 167t74 167l-222 522q-51 123 -130 123v17q3 -10 68 -13.5t157 -3.5q89 0 154 4 t72 13v-17q-41 0 -41 -41q0 -27 20 -78l17 -41l55 -130l58 130l17 41q20 51 20 78q0 41 -41 41v17q0 -10 66.5 -13.5t159.5 -3.5q89 0 153.5 4t71.5 13v-17q-79 0 -130 -123l-222 -522l144 -334l78 -185q51 -123 130 -123v-17q-7 7 -72 12t-153 5q-92 0 -159 -5t-67 -12v17 q41 0 41 41q0 27 -20 79l-17 41l-58 130l-55 -130l-17 -41q-20 -51 -20 -79q0 -41 41 -41v-17q-7 7 -72 12t-154 5q-92 0 -157 -5t-68 -12zM0 1355q31 0 65 -55q-7 0 -11 2l-3 2q-51 0 -51 51zM150 167q24 3 75 4q31 0 65 -2t68 -2q0 20 7 46t17 46l72 171q14 31 48 31 q38 0 48 -31l71 -171h2h2q17 -55 24 -92q31 0 65 2t68 2q48 0 75 -4q-10 14 -17 27.5t-11 27.5l-78 184l-143 338q-14 17 0 38l150 355h-14l-150 -349q-3 -10 -3 -27q1 -3 1 -6q0 -29 -92 -33q-10 -1 -19 -1q-67 0 -67 28q0 5 2 12q0 7 -6 27l-147 349h-14l150 -355 q10 -20 0 -38q-38 -85 -73.5 -170.5t-69.5 -167.5l-79 -184q-7 -14 -13.5 -27.5t-13.5 -27.5zM423 1137l21 -48q14 -38 58 -38t61 38l17 48h-13l-17 -41q-10 -31 -48 -31q-34 0 -48 31l-17 41h-14zM461 1355q41 10 41 51v17h3v-17q0 -41 38 -51q0 -17 -14 -44q-7 -7 -17 -7 q0 -7 1.5 -12t5.5 -9l-17 -37l-24 58q-3 10 -10 23.5t-7 27.5zM556 51q10 0 24 7q10 0 30.5 1.5t34.5 5.5h65h72h66.5h69.5q10 -3 29 -5t36 -2q14 -10 38 -3q38 10 37 47v17q51 0 51 -51v-17q0 -38 -37 -48q-24 -3 -38 4q-14 0 -34 1.5t-31 1.5q-34 0 -69.5 2t-66.5 2 q-38 0 -72 -2t-65 -2q-14 0 -34 -1.5t-31 -1.5q-17 -7 -40 -4q-34 10 -35 48zM710 761l215 502q7 20 29 56t53 36q51 0 51 51v17l5 -1q5 -2 9 -2q38 -14 37 -51v-14q0 -51 -51 -51q-31 0 -53 -36t-29 -56l-215 -502l137 -314l78 -184q3 -10 17 -38q-27 7 -44 37.5t-24 51.5 l-78 184z" />
<glyph unicode="Y" horiz-adv-x="1430" d="M0 1355q34 0 61 -55q-3 0 -7 2l-3 2q-51 0 -51 51zM0 1406v14q7 -7 70 -10.5t155 -3.5q85 0 148.5 3.5t73.5 10.5v-14q-38 0 -37 -41q0 -27 20 -78l17 -41l133 -311l65 -153l68 153l130 311l17 41q24 58 24 78q0 41 -41 41v17q0 -10 65 -13.5t157 -3.5t157 3.5t68 13.5 v-17q-79 0 -129 -123l-366 -860l-61 -143l-17 -41q-20 -51 -21 -79q0 -41 41 -41v-17q-7 7 -71.5 12t-153.5 5q-92 0 -158.5 -5t-66.5 -12v17q79 0 129 123l79 185q-92 212 -184.5 426.5t-180.5 429.5q-51 123 -130 123zM246 1137q72 -174 147 -346.5t150 -343.5 q3 -20 0 -41l-79 -184q-10 -14 -15 -27.5t-12 -27.5q24 3 75 4q31 0 65 -2t68 -2q0 20 7 46t17 46l79 185l2 2q1 1 1 5l293 686h-17l-157 -376q-15 -33 -77 -33h-19q-68 5 -68 27q0 3 1 6l64 147l96 229h-14l-95 -222l-65 -154q-17 -34 -48 -34q-41 3 -48 34l-65 154 l-95 222h-14l99 -229l62 -147q2 -6 2 -10q0 -26 -61 -26h-7q-81 2 -98 36l-161 376h-13zM287 51q10 0 24 7q10 0 30.5 1.5t33.5 5.5h65h72h66.5h70.5q10 -3 28.5 -5t35.5 -2q14 -10 38 -3q38 10 37 47v17q0 38 -40 52q0 10 6.5 25.5t10.5 25.5l75 174l2 4l1 3l365 860 q10 20 31 56t51 36q55 0 55 51v17l5 -1q5 -2 9 -2q38 -14 37 -51v-14q0 -51 -51 -51q-31 0 -53 -36t-32 -56l-366 -860q0 -3 -3 -7l-75 -178q-3 -10 -10 -23.5t-7 -24.5q41 -14 41 -51v-17q0 -38 -38 -48q-24 -3 -37 4q-14 0 -34.5 1.5t-30.5 1.5q-34 0 -70 2t-67 2 q-38 0 -72 -2t-64 -2q-14 0 -34.5 -1.5t-30.5 -1.5q-17 -7 -41 -4q-34 10 -34 48zM461 1355q41 10 41 51v14q14 0 20 -3q31 -17 31 -48v-14q0 -41 -41 -51q3 -31 17 -51l17 -38l116 -270l-17 -34l-17 45l-133 310v4l-17 37q-14 14 -17 48z" />
<glyph unicode="Z" horiz-adv-x="1122" d="M0 51h966q20 0 38 17q17 17 13 41q-3 44 -5 92t-2 96q0 44 2 92t5 99v1v3q20 0 38 -18q17 -20 13 -41q-3 -48 -4.5 -95.5t-1.5 -91.5q0 -48 1.5 -96t4.5 -92q3 -24 -13 -41q-17 -17 -38 -17h-966q-51 0 -51 51zM0 102v314h3l529 693h-71h-99h-239q-116 0 -116 -75h-7 q0 31 3.5 82t3.5 113q0 58 -3.5 109t-3.5 85h966v-314l-529 -693h68h99h239q116 0 116 76h7q-3 -31 -5 -82.5t-2 -112.5t2 -112.5t5 -82.5h-966zM0 983h7q51 0 51 51l2 4q1 3 1 6q3 10 27.5 12t34.5 2h307l-41 -51h-215q-10 0 -32.5 -3.5t-28.5 -10.5v-7v-3q0 -51 -55 -51 h-7q-27 0 -37 17q-14 7 -14 34zM51 154h860q-3 34 -3 69.5v73.5v36v39q-31 -10 -65 -10h-406q-31 0 -48 31q-14 31 7 54l519 679v11h-14v-4l-280 -372q-41 -41 -173 -43h-8q-98 0 -98 28q0 7 6 15l236 311q12 16 12 37q0 13 -5 28h-14q0 -3 3 -4q10 -31 -7 -54l-522 -686 v-239zM539 468l468 607q10 14 10 34v314q51 0 51 -54v-311q0 -20 -10 -34l-427 -556h-92z" />
<glyph unicode="a" horiz-adv-x="1430" d="M0 51q7 0 20 7q10 0 32.5 1.5t36.5 5.5h65h71h67h70q10 -3 30.5 -5t34.5 -2q20 -14 44 0q31 14 31 44v17q0 38 -41 52q7 34 17 47l17 38v3h304l13 -41q0 1 7 -13h-273l-17 -38q-10 -14 -17 -48q41 -14 41 -51v-17q0 -31 -31 -44q-24 -10 -44 0q-14 0 -34.5 1.5t-30.5 1.5 q-34 0 -70 2t-67 2q-38 0 -71.5 -2t-64.5 -2q-14 0 -34.5 -1.5t-33.5 -1.5q-20 -7 -45 0q-27 14 -27 44zM0 102v17q79 0 130 123l501 1181h28l502 -1181q51 -123 129 -123v-17q-3 7 -68 12t-157 5t-157 -5t-65 -12v17q41 0 41 41q0 17 -24 79l-17 41l-10 31h-372l-14 -31 l-17 -41q-20 -51 -20 -79q0 -41 37 -41v-17q-10 7 -73 12t-149 5q-92 0 -155 -5t-70 -12zM150 167q24 3 75 4q31 0 65 -2t65 -2q0 20 8.5 46t18.5 46v4l17 37l14 31q10 31 48 31h372q31 0 44 -31l31 -72q20 -44 27 -92q31 0 65 2t65 2q51 0 75 -4q-10 14 -15 27.5t-12 27.5 l-389 915h-14l160 -376q2 -4 2 -8q0 -21 -62 -21h-10q-84 2 -93 29l-4 10q-17 38 -58 38q-44 0 -58 -38l-3 -10q-22 -35 -88 -35h-13q-65 3 -65 26q0 4 2 9l160 376h-13l-390 -915q-10 -14 -15 -27.5t-12 -27.5zM519 580q-10 -27 7 -48q7 -24 41 -23h157q27 0 44 23 q14 17 3 48l-13 31l-65 154q-17 31 -48 30q-38 0 -48 -30l-65 -154zM567 560l13 31l65 153l68 -153l11 -31h-157zM645 611v3v-3zM713 1423q34 -7 45 -34l502 -1177q7 -10 20 -38q-27 7 -44 37.5t-28 51.5zM843 51q10 0 24 7q10 0 30.5 1.5t30.5 5.5h68.5h68.5h68h72 q10 -3 29 -5t32 -2q17 -10 41 -3q38 10 38 47v17q51 0 51 -51v-17q0 -38 -37 -48q-24 -3 -38 4q-20 3 -65 3q-38 0 -72 2t-64 2q-38 0 -72 -2t-65 -2q-14 0 -34.5 -1.5t-30.5 -1.5q-20 -7 -41 -4q-34 10 -34 48z" />
<glyph unicode="b" horiz-adv-x="1133" d="M0 51h529q68 0 138 8.5t135 29.5q92 24 154 102q61 72 78 164q8 46 8 92t-8 92q-31 109 -89 181q106 -89 140 -232q8 -46 8 -92.5t-8 -93.5q-17 -94 -78 -165q-58 -75 -154 -99q-119 -38 -269 -38h-4h-529q-51 0 -51 51zM0 102v21q75 0 75 130v1020q0 130 -75 130v20h75 h386q154 -7 249 -34q123 -48 177 -170q31 -79 31 -157q0 -92 -37.5 -155.5t-109.5 -121.5q109 -48 164 -143.5t57 -197.5q0 -3 -1 -6q1 -100 -49 -184q-52 -86 -154 -117t-259 -35h-49h-70h-410zM0 1352h2h5q3 -3 13 -41q-20 14 -20 41zM113 154h416q58 0 121 6.5t125 27.5 q58 14 102 68q64 79 64 181q0 39 -9 82q-34 157 -181 218q-31 17 -31 41q-7 31 17 48q61 51 94 102.5t33 133.5q0 51 -7 75h-14q10 -38 10 -75q0 -79 -30.5 -128.5t-92.5 -97.5q-31 -24 -23 -54q0 -17 -87.5 -34.5t-195.5 -22.5q-35 -2 -67 -2q-69 -1 -129 7q-88 10 -88 52 v355h-14v-884q0 -58 -13 -99zM314 887q0 -64 63 -64h2q68 0 106 3q41 0 61 3l2 2l2 2q99 24 133 130q10 36 10 71.5t-10 71.5q-7 20 -14 31h-14q7 -14 14 -34q10 -34 10 -68.5t-10 -68.5q-27 -99 -123 -123q-17 -3 -34 -5t-31 -2h-52.5h-49.5q-51 0 -51 51v125v125h-14v-250 zM328 345v293q0 51 51 51h8.5h11.5q72 0 110 -3q55 0 75 -7q92 -20 126 -119q10 -34 10 -69t-10 -71q-34 -96 -126 -120q-17 -3 -37.5 -4.5t-37.5 -1.5h-56.5h-53.5h-12h-8q-51 0 -51 51zM379 345q61 0 119 1.5t75 5.5q66 13 86 85q7 28 7 55t-7 54q-20 68 -86 85 q-17 0 -75 3.5t-119 3.5v-293zM379 887q119 0 153 7q65 14 89 86q7 28 7 55t-7 54q-24 68 -89 85q-34 7 -153 7v-148.5v-145.5zM430 396v191q48 0 72 -3q44 0 58 -4q34 -10 51 -48v-3q-17 3 -55 3q-20 0 -39 2t-36 2v-140h-27.5h-23.5zM430 939v191q17 -3 48 -4q31 0 44 -3 q34 -10 48 -51q-10 3 -41 3h-23.5h-24.5v-133h-3q-17 -3 -48 -3zM860 799q109 102 109 263q0 82 -34 174q-27 57 -54 95q68 -58 105 -147q34 -92 35 -174q0 -157 -103 -259q-14 10 -29 22t-29 26z" />
<glyph unicode="c" horiz-adv-x="969" d="M0 761q0 287 167 471q174 191 464 191h188q-3 -31 -5 -83.5t-2 -114.5q0 -61 2 -109t5 -78q-74 72 -193 72q-12 0 -25 -1q-133 -7 -219 -105q-88 -100 -88 -243t88 -239q85 -102 219 -106q15 -1 29 -1q117 0 189 73q-3 -31 -5 -80.5t-2 -107.5q0 -65 2 -116t5 -82h-188 q-290 0 -464 192q-167 181 -167 467zM51 761q0 -123 36 -232t118 -198q157 -177 426 -177h134q-3 34 -3.5 71.5t-0.5 74.5v42.5v46.5q-68 -27 -160 -27q-160 10 -260 126q-102 116 -102 273t102 277q65 68 137 99h-31q-61 -31 -112 -89q-106 -123 -106 -287q0 -48 -72 -48 q-5 1 -10 1q-82 4 -82 47q0 222 109 376h-17q-106 -157 -106 -376zM177 212q177 -160 454 -161h188q24 0 41 17q14 20 10 41q-3 24 -3 79q-3 38 -3 112v89t6 92v2v5q3 0 24 -7q31 -20 28 -51q-7 -44 -7 -92v-89v-58t3 -58q0 -51 4 -75q3 -27 -11 -41q-17 -17 -41 -17h-187 q-147 0 -275 48t-227 160zM345 761q0 123 75 208q79 82 184 89h10q106 0 168 -58q16 -14 34 -14q13 0 27 7q31 10 27 51q-7 38 -7 83q1 3 1 6v92q0 75 3 113q0 55 3 79v1v5q24 0 41 -17q14 -20 11 -41q-3 -27 -4 -78q-3 -38 -3 -113v-92t7 -89v-7q0 -33 -28 -47 q-38 -14 -58 10q-65 58 -171 58h-10q-106 -7 -184 -89q-75 -85 -75 -208q0 -113 65 -191q-14 10 -41 37q-75 82 -75 205z" />
<glyph unicode="d" horiz-adv-x="1211" d="M0 51h437q143 0 271 48t231 160q181 205 181 502q0 140 -43 268t-135 234q10 -14 24 -26t24 -22q181 -208 181 -505q0 -304 -181 -502q-102 -113 -230.5 -160.5t-271.5 -47.5h-437q-51 0 -51 51zM0 102v21q75 0 75 130v1020q0 130 -75 130v20h75h164h140h58 q287 0 464 -191q167 -191 167 -471t-167 -467q-177 -191 -464 -192h-58h-140h-239zM0 1352h2h5q3 -3 13 -41q-20 14 -20 41zM113 154h324q263 0 427 177q82 89 117.5 198t35.5 232q0 222 -109 376h-14q109 -154 110 -376q-4 -41 -86 -43h-5q-77 0 -73 43q0 164 -106 287 q-58 58 -116 89h-31q79 -34 137 -99q102 -119 102 -277q0 -157 -102 -273t-256 -126h-26h-22h-41q-51 0 -51 54v693q0 20 7 28h-18q-3 -7 -3 -28v-348q0 -37 -87 -39q-3 0 -6 -1q-81 0 -81 40v376h-14v-884q0 -58 -13 -99zM379 416h41q24 -7 44 0q133 3 222 106 q89 102 89 239t-89 243q-89 99 -222 105q-20 3 -44 0h-41v-222v-249v-222zM430 468v590h15.5h18.5q106 -7 185 -89q0 -3 3 -8t7 -5q-61 44 -144 51h-18.5h-15.5v-539h-12h-5h-18.5h-15.5z" />
<glyph unicode="e" d="M0 51h860q20 0 38 17q14 14 13 41q-7 41 -7 86v6q0 48 1 96v92t6 96v1v6q20 0 38 -18q17 -20 14 -41q-7 -48 -7 -95.5v-91.5v-96t7 -92q3 -24 -14 -41t-38 -17h-860q-51 0 -51 51zM0 102v17q75 0 75 123v1041q0 123 -75 123v17h765q-7 -31 -7 -82v-112v-112.5t7 -82.5 h-11q0 75 -119 75h-256v-71v-120v-34q17 14 42.5 22.5t29.5 45.5q19 2 38 2q105 0 216 -46q131 -54 213 -184q-126 28 -213 28q-47 0 -83 -8q-100 -24 -171 -106h-37.5h-34.5v-30v-123v-69h351q119 0 120 76h10q-3 -31 -5 -82.5t-2 -112.5t2 -112.5t5 -82.5h-860zM0 1355 q7 0 7 -3q13 -7 13 -41q-20 14 -20 44zM113 154h693q-3 34 -3.5 69.5t-0.5 73.5v36v39q-38 -10 -72 -10h-351q-51 0 -51 54v222q0 24 13 38q14 14 38 13h23.5h24.5q41 41 75 59q60 41 134 51q43 6 87 5q31 0 62 -2q-126 99 -297 99q-14 -20 -24 -27q-7 -7 -34 -21 q-7 -3 -13.5 -6.5t-10.5 -3.5q-27 -20 -51 -3q-27 14 -27 44v225q0 20 7 28h-18q-3 -7 -3 -28v-225q0 -38 34 -55q14 -11 29 -11q17 0 36 15q3 0 10 3.5t14 6.5q17 3 34 21q14 7 24 23q137 0 246 -71q-65 0 -126.5 -10.5t-116.5 -44.5q-50 -39 -204 -57q-30 -4 -55 -3 q-99 0 -99 60v376h-14v-895q0 -48 -13 -88zM430 468v119h10h14q27 7 34 17q27 31 68 58q63 38 146 38h25q99 -6 181 -24q31 -14 51 20q20 24 4 55q-20 34 -48 68q55 -55 99 -119q14 -31 -4 -58q-17 -31 -51 -17q-82 17 -181 23q-13 1 -25 1q-83 0 -145 -38q-41 -31 -65 -58 q-10 -10 -38 -17h-14h-10v-68h-51zM430 1000v58h205q10 0 34 -1.5t31 -12.5q3 -3 3 -10q0 -17 10 -27h-17h-10h-205v-3h-18.5h-15.5t-12 -2zM754 983h11q20 0 37 17q14 14 14 41q-7 44 -7 92v96v92t7 96v1v5q20 0 37 -17q14 -14 14 -41q-7 -48 -7 -95.5v-91.5v-97.5t7 -94.5 q0 -24 -14 -37q-17 -17 -37 -17h-10q-51 0 -52 51z" />
<glyph unicode="f" d="M0 51q14 0 27 7q10 0 31 1.5t31 5.5q34 0 68 1.5t68 1.5t68.5 -1.5t68.5 -1.5q10 -3 29 -5t36 -2q14 -7 24 -7q51 0 51 51v17q51 0 51 -51v-17q0 -51 -51 -51q-10 0 -24 7q-14 0 -34.5 1.5t-30.5 5.5q-34 0 -68 1.5t-65 1.5q-38 0 -72 -1.5t-68 -1.5q-10 -3 -30.5 -5 t-30.5 -2q-14 -7 -24 -7q-55 0 -55 51zM0 102v17q75 0 75 120v1044q0 123 -75 123v17h860q-3 -31 -5 -82t-2 -112t2 -112.5t5 -82.5h-10q0 75 -120 75h-351v-68v-96v-27v-31v-3q17 14 42.5 22.5t29.5 45.5q19 2 38 2q105 0 216 -46q131 -55 213 -184q-126 28 -213 28 q-47 0 -83 -8q-100 -24 -171 -106h-37.5h-34.5v-30v-184.5v-184.5q0 -119 72 -120v-17q0 7 -67 12t-159 5t-158.5 -5t-66.5 -12zM0 1355q7 0 7 -3q13 -7 13 -41q-20 14 -20 44zM119 167q24 0 51.5 2t54.5 2q72 0 110 -4q-7 24 -7 72v198v201q0 24 13 38q14 14 38 13h23.5 h24.5q41 41 75 59q61 41 134 51q44 6 87 6q31 0 62 -3q-126 99 -297 99q-14 -20 -24 -27q-7 -7 -34 -21q-7 -3 -13.5 -6.5t-10.5 -3.5q-27 -20 -51 -3q-27 14 -27 44v225q0 20 7 28h-18q-3 -7 -3 -28v-225q0 -38 34 -55q14 -11 29 -11q18 0 36 15q3 0 10 3.5t14 6.5 q17 3 34 21q14 7 24 23q137 0 246 -71q-65 0 -126.5 -10.5t-116.5 -44.5q-51 -34 -204 -41q-20 -1 -37 -1q-117 0 -117 42v376h-14v-898q0 -24 -7 -72zM430 239v348h10h14q27 7 34 17q27 31 68 58q63 38 146 38h25q99 -7 181 -24q31 -14 51 20q20 24 4 55q-20 34 -48 68 q55 -55 99 -119q14 -31 -4 -58q-17 -31 -51 -17q-82 17 -181 23q-13 1 -25 1q-83 0 -145 -38q-41 -31 -65 -58q-10 -10 -38 -17h-14h-10v-348v-10v-18q-10 10 -30 11h-3q-4 0 -4 3q-10 3 -12 29t-2 36zM430 1000v58h300q10 0 34 -1.5t35 -12.5v-6v-4q0 -17 10 -27h-17h-10 h-301v-3h-18.5h-15.5t-12 -2zM850 983h10q20 0 38 17q14 14 13 41q-7 41 -7 86v6q1 48 1 96v92t6 96v1v5q20 0 38 -17q17 -20 14 -41q-7 -48 -7 -95.5v-91.5v-97.5t7 -94.5q3 -20 -14 -37t-38 -17h-6q-55 0 -55 51z" />
<glyph unicode="g" horiz-adv-x="1215" d="M0 761q0 287 167 471q174 191 464 191h195v-392q-79 79 -204 79q-10 0 -21 -1q-133 -7 -219 -105q-88 -100 -88 -243t88 -239q85 -102 219 -106q13 -3 30 -3q27 0 62 7v235v116q0 126 -75 127v17q0 -10 66.5 -13.5t158.5 -3.5t158.5 3.5t66.5 13.5v-17q-72 0 -71 -123 v-536q0 -119 71 -120v-17h-242h-195h-13q-283 3 -451 192q-167 181 -167 467zM51 761q0 -123 36 -232t118 -198q150 -174 413 -177h2h1h335q-10 27 -11 85v536q0 51 7 75q-38 -3 -109 -3h-54.5t-54.5 3q10 -41 10 -79v-351q0 -44 -41 -48q-34 -10 -102 -10q-160 10 -260 126 q-102 116 -102 273t102 277q65 68 137 99h-31q-61 -31 -112 -89q-106 -123 -106 -287q0 -41 -82 -41t-82 41q0 222 109 376h-17q-106 -157 -106 -376zM177 212q167 -157 437 -161h2h2h450q55 0 55 51v17q51 0 51 -51v-17q0 -51 -51 -51h-454h-1h-2q-304 3 -485 208zM345 761 q0 123 75 208q79 82 184 89h10q112 0 174 -65q17 -17 35 -17q12 0 24 7q34 10 34 48v392q51 0 51 -51v-392q0 -17 -10 -28q-24 -3 -79 -3h-7q-65 58 -171 58h-10q-106 -7 -184 -89q-75 -85 -75 -208q0 -113 65 -191q-14 10 -41 37q-75 82 -75 205zM618 843h4h3q13 -7 13 -41 q-20 14 -20 41zM751 836q31 -3 92 -3t92 3q-3 -20 -3 -61v-14q0 -31 -87 -34h-13q-74 0 -74 34v10q0 24 -7 65zM761 1137l14 -7v7h-14zM1048 239v536q0 10 1.5 35.5t12.5 32.5h3h3q55 0 55 55v17q51 0 51 -51v-21q0 -51 -51 -51h-7h-3q-10 -7 -12 -32.5t-2 -35.5v-536v-10 v-18q-10 10 -31 11h-3t-3 3q-10 3 -12 29t-2 36z" />
<glyph unicode="h" horiz-adv-x="1256" d="M0 51q10 0 24 7q14 0 32.5 1.5t32.5 5.5q31 0 66.5 1.5t69.5 1.5q31 0 67 -1.5t70 -1.5q10 -3 29 -5t36 -2q14 -7 24 -7q51 0 51 51v17q51 0 51 -51v-17q0 -51 -51 -51q-10 0 -24 7q-14 0 -34.5 1.5t-30.5 5.5q-34 0 -68 1.5t-69 1.5q-34 0 -69.5 -1.5t-66.5 -1.5 q-14 -3 -32.5 -5t-28.5 -2q-20 -7 -28 -7q-51 0 -51 51zM0 102v17q72 0 72 123v1041q0 123 -72 123v17q0 -10 66.5 -13.5t158.5 -3.5t157 4t69 13v-17q-72 0 -72 -119v-369h355v365q0 123 -75 123v17q0 -10 66.5 -13.5t158.5 -3.5t158.5 4t66.5 13v-17q-72 0 -71 -119v-1048 q0 -119 71 -120v-17q0 7 -66.5 12t-158.5 5t-158.5 -5t-66.5 -12v17q75 0 75 123v366h-355v-369q0 -119 72 -120v-17q0 7 -67 12t-159 5t-158.5 -5t-66.5 -12zM0 1355q3 0 7 -3q6 -4 13 -38q-20 14 -20 41zM116 167q38 3 109 4q72 0 110 -4q-7 24 -7 72v369q0 51 51 51h355 q51 0 51 -51v-366q0 -20 -7 -75q34 3 106 4q71 -1 109 -4q-7 24 -7 72v898h-13v-376q0 -41 -131.5 -59.5t-288.5 -18.5t-286.5 18.5t-129.5 59.5v376h-14v-895q0 -48 -7 -75zM314 918q0 -65 65 -65h355q65 0 65 65v219h-14v-219q0 -51 -51 -51h-355q-51 0 -51 51v219h-14 v-219zM430 239v317h253v-51h-202v-317v-10v-18q-10 10 -30 11h-3q-4 0 -4 3q-10 3 -12 29t-2 36zM430 969v318q0 7 1.5 32.5t12.5 32.5l4 2l3 1q51 0 51 51v17q51 0 51 -51v-17q0 -51 -51 -51l-4 -2l-3 -2q-10 -7 -12 -32.5t-2 -35.5v-263h-51zM659 51q14 0 27 7 q10 0 29 1.5t33 5.5q31 0 66.5 1.5t69.5 1.5t68 -1.5t69 -1.5q10 -3 28.5 -5t35.5 -2q14 -7 24 -7q55 0 55 51v17q51 0 51 -51v-17q0 -51 -51 -51h-3q-10 0 -24 7q-14 0 -34.5 1.5t-30.5 5.5q-34 0 -68.5 1.5t-68.5 1.5t-68 -1.5t-68 -1.5q-10 -3 -30.5 -5t-31.5 -2 q-14 -7 -27 -7q-51 0 -51 51zM659 1355q7 0 7 -3q13 -7 13 -41q-20 14 -20 44zM1089 239v1048q0 7 1.5 32.5t12.5 32.5l3 2l3 1q55 0 55 51v17q51 0 51 -51v-17q0 -51 -51 -51q-3 0 -6 -2l-4 -2q-10 -7 -12 -32.5t-2 -35.5v-1044v-10v-18q-10 10 -31 11h-3t-3 3 q-10 3 -12 29t-2 36z" />
<glyph unicode="i" horiz-adv-x="617" d="M0 51q7 0 27 7q10 0 29 1.5t33 5.5q31 0 66.5 1.5t69.5 1.5t68.5 -1t68.5 -2q10 -3 30.5 -5t34.5 -2q14 -7 24 -7h3q51 0 51 51v17q51 0 51 -51v-17q0 -51 -51 -51h-3q-10 0 -24 7q-14 0 -34.5 1.5t-30.5 5.5q-34 0 -68 1.5t-69 1.5q-34 0 -68 -1.5t-68 -1.5 q-10 -3 -30.5 -5t-30.5 -2q-14 -7 -28 -7q-51 0 -51 51zM0 102v17q75 0 75 123v519v522q0 123 -75 123v17q0 -10 66.5 -13.5t158.5 -3.5t159 4t67 13h3v-17q-75 0 -75 -119v-1048q0 -119 75 -120v-17h-3q0 7 -67 12t-159 5t-158.5 -5t-66.5 -12zM0 1355q7 0 7 -3 q13 -7 13 -41q-20 14 -20 44zM116 167q38 3 109 4q72 -1 110 -4q-7 24 -7 72v898h-14v-376q0 -37 -87 -39q-3 0 -6 -1q-81 0 -81 40v376h-14v-895q0 -34 -10 -75zM430 239v1048q0 7 1.5 32.5t12.5 32.5q3 3 10 3q51 0 51 51v17q51 0 51 -51v-17q0 -51 -51 -51q-3 0 -7 -2 l-3 -2q-10 -7 -12 -32.5t-2 -35.5v-1044v-10v-18q-10 10 -27 11q-7 0 -10 3q-10 3 -12 29t-2 36z" />
<glyph unicode="j" horiz-adv-x="965" d="M0 65h2h1h17q48 3 48 54v3v11q3 0 24 -10h4q126 -72 303 -72h14h17h4h3h379q51 0 51 51v21q51 0 51 -51v-21q0 -51 -51 -51h-379h-2h-5h-17h-13q-171 0 -304 72h-2h-2q-20 10 -24 10v-10v-4q0 -51 -47 -54h-17q-20 -7 -38 13q-17 17 -17 38zM0 116v10q3 0 8.5 68.5 t5.5 163.5q0 96 -5.5 164.5t-8.5 68.5v10h17v-17q0 -65 126 -123q123 -65 243 -65q14 0 27.5 1.5t23.5 1.5v17v234v237v222v178q0 119 -72 119v17q0 -10 66.5 -13.5t159.5 -3.5q92 0 158.5 3.5t66.5 13.5v-17q-75 0 -75 -119v-11v-3v-1020q0 -130 75 -130v-21h-239h-140 h-18.5h-19.5q-150 0 -280 65q-34 17 -51 17q-51 0 -51 -68h-17zM65 236h1h2q27 0 75 -21q106 -61 256 -61q24 0 38 3q7 0 10 -3h256q-14 41 -14 99v884h-13v-376q0 -34 -87 -34t-87 34v376h-14v-368.5v-369.5q0 -44 -41 -47q-20 -7 -61 -7q-130 0 -267 68q-34 20 -54 31 q0 -20 1.5 -42.5t1.5 -43.5q0 -31 -1.5 -61.5t-1.5 -60.5zM68 584v17q51 0 51 -51v-18q-27 20 -34 28q-17 7 -17 24zM365 1355l2 -1q2 -2 5 -2q7 -4 14 -38q-20 14 -21 41zM792 253v1020v3v7v2v5q0 10 3.5 32.5t13.5 29.5q0 3 7 3q51 0 51 51v17q51 0 51 -51v-17 q0 -51 -51 -51q-3 0 -5 -2l-2 -2q-10 -7 -11.5 -29t-1.5 -32v-5v-2v-6v-4v-1021v-17v-20q-10 10 -31 10h-4h-3q-10 3 -13.5 35.5t-3.5 43.5z" />
<glyph unicode="k" horiz-adv-x="1242" d="M0 51q7 0 27 7q10 0 29 1.5t33 5.5q31 0 66.5 1.5t69.5 1.5t68.5 -1.5t68.5 -1.5q10 -3 30.5 -5t34.5 -2q14 -7 24 -7h3q51 0 51 51v17q51 0 51 -51v-17q0 -51 -51 -51h-3q-10 0 -24 7q-14 0 -34.5 1.5t-30.5 5.5q-34 0 -68 1.5t-69 1.5q-34 0 -68 -1.5t-68 -1.5 q-10 -3 -30.5 -5t-30.5 -2q-14 -7 -28 -7q-51 0 -51 51zM0 102v17q75 0 75 123v144v222v310v249v116q0 123 -75 123v17q0 -10 66.5 -13.5t158.5 -3.5t159 4t67 13h3v-17q-75 0 -75 -119v-379l249 386q24 41 24 71q0 41 -44 41v17q0 -10 70 -13.5t172 -3.5q99 0 169 4t70 13 v-17q-34 0 -72 -37q-14 -14 -51 -79l-321 -522l328 -532q24 -48 51 -79q31 -38 72 -38v-17q0 7 -72 12t-171 5t-169 -5t-70 -12v17q44 0 45 41q0 31 -28 72l-252 399v-392q0 -119 75 -120v-17h-3q0 7 -67 12t-159 5t-158.5 -5t-66.5 -12zM0 1355q7 0 7 -3q13 -7 13 -41 q-20 14 -20 44zM116 167q38 3 109 4q72 -1 110 -4q-7 24 -7 72v392q0 34 34 48q10 3 19 3q26 0 39 -23l256 -400q27 -48 34 -92q34 0 70 2t73 2h48h51q-10 7 -15 17t-9 20l-327 533q-17 27 0 54l208 342h-14l-208 -335q-14 -20 -7 -41q1 -2 1 -4q0 -18 -62 -33 q-68 -16 -152 -20q-19 -1 -37 -1q-62 0 -118 9q-72 12 -72 49v376h-14v-895q0 -34 -10 -75zM314 908v229h14v-229q0 -44 34 -48q12 -4 21 -4q24 0 37 25l167 256h14l-168 -263q-20 -31 -52 -31q-11 0 -23 4q-44 10 -44 61zM430 239v215l51 -79v-187v-10v-18q-10 10 -27 11 q-7 0 -10 3q-10 3 -12 29t-2 36zM430 1082v205q0 7 1.5 32.5t12.5 32.5q3 3 10 3q51 0 51 51v17q51 0 51 -51v-17q0 -51 -51 -51q-3 0 -7 -2l-3 -2q-10 -7 -12 -32.5t-2 -35.5v-68zM614 51q10 0 24 7q14 0 34.5 1.5t34.5 5.5q38 0 73.5 1.5t72.5 1.5q38 0 74 -1.5t77 -1.5 q10 -3 30.5 -5t37.5 -2q14 -7 24 -7q51 0 51 51v17q51 0 51 -51v-17q0 -51 -51 -51q-10 0 -24 7q-17 0 -37.5 1.5t-30.5 5.5q-41 0 -77 1.5t-70 1.5q-41 0 -77 -1.5t-73 -1.5q-14 -3 -34.5 -5t-30.5 -2q-20 -7 -27 -7q-51 0 -52 51zM703 768l307 495q20 34 31 48q0 3 5 10 t9 14q31 20 34 20q51 0 51 51v17q51 0 51 -51v-17q0 -51 -51 -51q-10 0 -31 -21q-10 -10 -17 -23q-10 -14 -30 -48l-308 -495l314 -505q14 -27 24 -41q-17 3 -30 20q-10 14 -24 34.5t-21 37.5z" />
<glyph unicode="l" horiz-adv-x="1013" d="M0 51h860q20 0 38 17q14 14 13 41q-7 41 -7 86v6q0 48 1 96v92t6 96v1v6q20 0 38 -18q17 -20 14 -41q-7 -48 -7 -95.5v-91.5v-96t7 -92q3 -24 -14 -41t-38 -17h-860q-51 0 -51 51zM0 102v17q75 0 75 123v1045q0 119 -75 119v17q0 -10 66.5 -13.5t158.5 -3.5t159 4t67 13 v-17q-72 0 -72 -119v-437v-434h351q119 0 120 76h10q-3 -31 -5.5 -82.5t-1.5 -112.5q0 -61 1.5 -112.5t5.5 -82.5h-860zM0 1355q7 0 7 -3q13 -7 13 -38q-20 20 -20 41zM113 154h693q-3 34 -3.5 69.5t-0.5 73.5v36v39q-38 -10 -72 -10h-351q-51 0 -51 54v721h-14v-376 q-2 -41 -88 -43h-6q-80 0 -80 43v376h-14v-895q0 -48 -13 -88zM430 468v409.5v409.5q0 7 1.5 32.5t12.5 32.5l4 2l3 1q51 0 51 51v17q51 0 51 -51v-17q0 -51 -51 -51l-4 -2l-3 -2q-10 -7 -12 -32.5t-2 -35.5v-764h-51z" />
<glyph unicode="m" horiz-adv-x="1437" d="M0 51q10 0 24 7q14 0 32.5 1.5t32.5 5.5q31 0 66.5 1.5t69.5 1.5q31 0 65 -1.5t72 -1.5q10 -3 27 -5t31 -2q20 -7 27 -7q51 0 51 51v17q51 0 52 -51v-17q0 -51 -52 -51q-10 0 -24 7q-17 0 -34 1.5t-27 5.5q-34 0 -70 1.5t-67 1.5q-34 0 -69.5 -1.5t-66.5 -1.5 q-14 -3 -32.5 -5t-28.5 -2q-20 -7 -28 -7q-51 0 -51 51zM0 102v17q72 0 72 120v3v1041q0 119 -69 120v14q51 -10 222 -11q164 0 222 11v-11q-41 0 -41 -41q0 -27 21 -78l215 -505l215 505q20 44 20 78q0 38 -41 38v14q55 -10 222 -11q167 0 225 11v-11q-75 0 -75 -119v-1048 q0 -119 75 -120v-17q0 7 -64.5 12t-156.5 5t-159 -5t-67 -12v17q72 1 72 120v3v461l-253 -601h-27l-253 601v-464q0 -119 72 -120v-17q0 7 -65 12t-157 5t-158.5 -5t-66.5 -12zM3 1352h2h2q6 -4 13 -38q-17 17 -17 38zM116 167q38 3 109 4q68 0 106 -4q-7 24 -7 72v464 q0 44 41 51h7q36 0 51 -30l219 -519l222 519q9 30 45 30h9q44 -7 45 -51v-461v-3q-1 -38 -11 -72q38 3 110 4q68 0 102 -4q-7 48 -7 72v891h-14v-372q0 -49 -57 -49q-7 0 -16 1q-73 7 -125 48q-14 7 -23 10q-27 3 -48 -10q-38 -35 -102 -35q-6 1 -12 1q-62 3 -62 25q0 4 2 9 l160 372h-13l-158 -369q-17 -34 -47 -34q-38 0 -48 34l-157 369h-14l157 -372q2 -5 2 -10q0 -23 -60 -31q-12 -2 -22 -2q-56 0 -90 43q-24 14 -48 10q-10 -3 -24 -10q-44 -38 -122 -44q-9 -1 -17 -1q-62 0 -62 45v372h-14v-891q0 -48 -7 -72zM427 239q0 -10 1.5 -36 t11.5 -29q0 -3 7 -3q20 0 31 -11v17v11v140l-51 119v-208zM457 1355q41 10 41 51v11q20 0 34 -14q17 -17 18 -38v-10q0 -41 -41 -51q0 -14 6.5 -27.5t10.5 -23.5l129 -308l-13 -34l-168 393q-3 10 -10 23.5t-7 27.5zM625 51l6 -20q10 -31 48 -31h28q31 0 47 31l31 75v13 q0 31 24 45l48 112v175l-154 -369q-20 -31 -48 -31h-27h-3zM836 51q7 0 28 7q10 0 28.5 1.5t32.5 5.5q31 0 66.5 1.5t70.5 1.5q31 0 65 -1.5t68 -1.5q10 -3 28.5 -5t32.5 -2q14 -7 27 -7q51 0 52 51v17q51 0 51 -51v-17q0 -51 -51 -51q-14 0 -28 7q-14 0 -32.5 1.5 t-28.5 5.5q-34 0 -68.5 1.5t-64.5 1.5q-34 0 -70 -1.5t-67 -1.5q-14 -3 -32.5 -5t-28.5 -2q-20 -7 -28 -7q-51 0 -51 51zM1260 239v1048q0 7 1.5 32.5t11.5 32.5q3 3 10 3q51 0 52 51v11q20 0 34 -14q17 -17 17 -38v-10q0 -51 -51 -51q-3 0 -5 -2l-2 -2q-10 -7 -13.5 -32.5 t-3.5 -35.5v-1044q0 -3 1.5 -10t1.5 -18q-17 10 -31 11q-7 0 -10 3q-10 3 -11.5 29t-1.5 36z" />
<glyph unicode="n" horiz-adv-x="1170" d="M0 51q7 0 27 7q10 0 29 1.5t29 5.5q31 0 65 1.5t68 1.5q31 0 65 -1.5t69 -1.5q10 -3 28.5 -5t32.5 -2q14 -7 24 -7q51 0 51 51v17q55 0 55 -51v-17q0 -51 -55 -51q-10 0 -24 7q-14 0 -32.5 1.5t-28.5 5.5q-34 0 -68.5 1.5t-64.5 1.5q-34 0 -68.5 -1.5t-64.5 -1.5 q-10 -3 -29 -5t-29 -2q-20 -7 -28 -7q-51 0 -51 51zM0 102v17q72 0 72 123v1035q0 122 -71 122h-1v18q0 -7 63 -12.5t155 -5.5t155.5 5.5t63.5 12.5v-18q-68 0 -68 -119v-27l293 -465v489q0 122 -70 122h-1v18q0 -7 63 -12.5t155 -5.5t155 5.5t63 12.5h4v-18q-75 0 -75 -119 v-1041q0 -119 75 -120v-17h-4q0 7 -63 12t-155 5t-155 -5t-63 -12v17q72 0 71 123v24l-293 464v-491q0 -119 68 -120v-17q0 7 -63 12t-156 5q-92 0 -155 -5t-63 -12zM0 1348h2h5q3 -3 10 -37q-17 17 -17 37zM116 167q34 3 102 4q24 0 51.5 -2t54.5 -2q-7 24 -7 72v491 q0 38 35 52h8q35 0 50 -24l297 -461q7 -20 6 -31v-24q0 -48 -6 -75q34 3 102 4q68 -1 106 -4q-10 34 -10 72v891h-11v-372q0 -33 -94 -33q-4 1 -8 1q-81 1 -81 20q0 5 6 12q10 14 10 30v342h-14v-342q0 -38 -37 -47q-11 -4 -21 -4q-23 0 -37 24l-236 369h-13l239 -372 q3 -5 3 -9q0 -21 -70 -29q-15 -2 -28 -1q-61 0 -86 39l-4 7q-25 31 -55 31q-10 0 -20 -4q-24 -7 -41 -34q-3 -34 -87 -38h-12q-71 0 -71 38v372h-14v-888q0 -20 -7 -75zM420 239v314l51 -79v-286v-12v-16q-10 10 -34 11h-2t-2 3q-10 3 -11.5 29t-1.5 36zM420 1266v14 q0 7 1.5 34t11.5 34h2h2q51 0 51 51v18q55 0 55 -52v-17q0 -51 -55 -51h-2h-1q-10 -7 -12 -34t-2 -34v-14l140 -218v-31zM591 51q7 0 27 7q10 0 29 1.5t29 5.5q31 0 65 1.5t68 1.5q31 0 65 -1.5t68 -1.5q10 -3 29 -5t33 -2q14 -7 23 -7h4q51 0 51 51v17q51 0 51 -51v-17 q0 -51 -51 -51h-3q-10 0 -24 7q-14 0 -32.5 1.5t-29.5 5.5q-34 0 -68 1.5t-65 1.5q-34 0 -66.5 -1.5t-63.5 -1.5q-14 -3 -32.5 -5t-28.5 -2q-14 -7 -27 -7q-51 0 -51 51zM591 1348h1h5q11 -10 11 -41q-17 17 -17 41zM1010 239v1041q0 7 2 34t12 34h2h5q51 0 51 51v18 q51 0 51 -52v-17q0 -51 -51 -51h-5h-2q-10 -10 -11.5 -35.5t-1.5 -32.5v-1041v-12v-16q-10 10 -31 11q-7 0 -7 3q-10 3 -12 29t-2 36z" />
<glyph unicode="o" horiz-adv-x="1378" d="M0 782q0 280 182.5 479.5t438.5 199.5t438.5 -199.5t182.5 -479.5q0 -283 -182.5 -481.5t-438.5 -198.5t-438.5 198t-182.5 482zM51 782q0 -174 85.5 -329.5t242.5 -237.5q112 -61 242 -61t243 61q157 82 242 237.5t85 329.5q0 191 -99 355h-17q102 -160 103 -355 q-16 -63 -103 -63h-13q-93 5 -93 57v6q0 116 -66.5 215t-168.5 140h-48q119 -27 194.5 -129.5t75.5 -225.5q0 -143 -95.5 -252.5t-239.5 -109.5q-147 0 -240.5 109t-93.5 253q0 123 75 225t198 130h-48q-109 -41 -174 -140t-65 -215q-7 -71 -102 -71q-2 1 -4 1 q-99 2 -102 70q0 195 102 355h-17q-99 -164 -99 -355zM191 218q55 -51 140 -95q133 -72 290 -72t290 72q181 92 282 273t101 386q0 294 -191 512q116 -106 179 -254.5t63 -309.5q0 -205 -99 -385.5t-283 -272.5q-134 -72 -291 -72t-290 72q-106 55 -191 146zM338 782 q0 -130 82 -219t201 -89q116 0 200 89t84 219q0 126 -84 218t-200 92q-119 0 -201 -92t-82 -218zM389 782q0 96 65 177.5t167 81.5q110 0 178 -96q-51 41 -127 41q-102 0 -167 -80t-65 -176t55 -163q-106 75 -106 215z" />
<glyph unicode="p" horiz-adv-x="1088" d="M0 51q7 0 27 7q10 0 29 1.5t33 5.5q31 0 66.5 1.5t69.5 1.5t68.5 -1.5t68.5 -1.5q10 -3 30.5 -5t34.5 -2q14 -7 24 -7h3q51 0 51 51v17q51 0 51 -51v-17q0 -51 -51 -51h-3q-10 0 -24 7q-14 0 -34.5 1.5t-30.5 5.5q-34 0 -68 1.5t-69 1.5q-34 0 -68 -1.5t-68 -1.5 q-10 -3 -30.5 -5t-30.5 -2q-14 -7 -28 -7q-51 0 -51 51zM0 102v17q75 0 75 123v144v222v310v249v116q0 123 -75 123v17h379h27h45h3q133 -7 218 -30q126 -51 202 -161q78 -131 78 -253q0 -140 -78 -262q-72 -106 -174 -147t-215 -44h-39h-40h-27v-287q0 -119 75 -120v-17h-3 q0 7 -67 12t-159 5t-158.5 -5t-66.5 -12zM0 1355q7 0 7 -3q13 -7 13 -41q-20 14 -20 44zM116 167q38 3 109 4q72 0 110 -4q-7 24 -7 72v287q0 51 51 51h27q51 0 75 3q102 0 194.5 36t153.5 128q72 113 72 232q0 79 -37 161h-14q37 -80 37 -157q0 -96 -51 -198 q-27 -33 -81 -33q-28 0 -64 9q-94 24 -131 24h-7q89 24 123 123q8 34 8 68.5t-8 70.5q-20 55 -62 93h-23q48 -31 71 -96q10 -34 10 -67.5t-10 -65.5q-27 -92 -119 -116h-2h-2q-14 -3 -30.5 -5t-30.5 -2h-49.5h-49.5q-51 0 -51 51v277q0 17 3 24h-14q-3 -7 -3 -24v-277 q0 -41 31 -54q4 -5 4 -9q0 -20 -95 -31q-22 -2 -40 -2q-74 0 -74 42v355h-14v-895q0 -34 -10 -75zM379 836q109 0 150 7q65 14 82 82q10 25 10 50t-10 49q-17 65 -82 82q-41 7 -150 7v-277zM430 239v235h25.5h29.5q133 3 245.5 51t184.5 164q89 137 89 287q0 143 -89 284 q-20 31 -38 54q55 -51 89 -106q89 -137 89 -283q0 -157 -89 -287q-72 -116 -184.5 -163.5t-242.5 -51.5h-32.5h-25.5v-235v-10v-18q-10 10 -27 11q-7 0 -10 3q-10 3 -12 29t-2 36zM430 887v171h22h22q31 0 45 -3q34 -10 44 -45v-4v-2q-10 3 -37 3h-22h-23v-116h-7 q-10 0 -22 -2t-22 -2z" />
<glyph unicode="q" horiz-adv-x="1382" d="M0 744q0 280 182.5 479.5t438.5 199.5t438.5 -199.5t182.5 -479.5q0 -205 -95 -362h95q-3 -34 -4.5 -85t-1.5 -109q0 -116 6 -191h-6q0 71 -117 71h-3h-259h-168q-24 -3 -68 -3t-65 3h-3q-236 27 -394.5 218.5t-158.5 457.5zM51 744q0 -174 85.5 -329.5t242.5 -237.5 q82 -51 181 -58q20 -3 61 -3t62 3h1h5h427h12q38 0 56 -6v35.5v39.5v68.5t4 71.5h-41q-31 0 -44 27q-17 24 0 51q88 152 88 334q0 195 -99 359h-17q102 -160 103 -355q-6 -60 -72 -60q-17 0 -38 4q-99 18 -99 54q0 118 -66.5 217t-168.5 140h-48q119 -27 194.5 -129.5 t75.5 -225.5q0 -181 -130 -287q-14 -14 -38 -13q-154 7 -256 112v-82q0 -31 -27 -44q-31 -14 -51 3q-82 48 -124.5 133.5t-42.5 177.5q0 123 75 225.5t198 129.5h-48q-109 -41 -174 -140t-65 -215q0 -38 -104 -44q-12 -1 -22 -1q-82 0 -82 45q0 195 102 355h-17 q-99 -164 -99 -355zM191 181q55 -51 140 -96q106 -55 219 -68q24 -3 71 -3q48 0 72 3h423q7 0 32.5 -3.5t32.5 -10.5q3 -3 3 -6v-28h-12h-5h-423q-24 -3 -72 -3t-71 3q-123 17 -219 65q-102 48 -191 147zM338 744q0 -181 143 -270v137q48 0 72 -3q44 -51 100.5 -80.5 t138.5 -29.5q113 89 113 246q0 126 -84 216.5t-200 90.5q-119 0 -201 -90.5t-82 -216.5zM389 744q0 96 65 176t167 80q106 0 178 -92q-51 41 -127 41q-102 0 -167 -80.5t-65 -175.5q0 -10 2 -18.5t2 -15.5h-14v-58q-41 65 -41 143zM1103 1256q116 -109 179 -257.5t63 -305.5 q0 -147 -45 -270v10h-68q61 143 62 311q0 294 -191 512zM1236 -55h64l-6 55q-7 41 -7 90.5v97.5v92t7 95v7q24 0 41 -17q14 -27 10 -41q-3 -48 -5 -95.5t-2 -91.5q0 -51 1.5 -97.5t5.5 -90.5q3 -14 -10 -41q-14 -14 -41 -14h-7q-51 0 -51 51z" />
<glyph unicode="r" horiz-adv-x="1225" d="M0 51q7 0 27 7q10 0 29 1.5t33 5.5q31 0 66.5 1.5t69.5 1.5t68.5 -1.5t68.5 -1.5q10 -3 30.5 -5t34.5 -2q14 -7 24 -7h3q51 0 51 51v17q51 0 51 -51v-17q0 -51 -51 -51h-3q-10 0 -24 7q-14 0 -34.5 1.5t-30.5 5.5q-34 0 -68 1.5t-69 1.5q-34 0 -68 -1.5t-68 -1.5 q-10 -3 -30.5 -5t-30.5 -2q-14 -7 -28 -7q-51 0 -51 51zM0 102v17q75 0 75 123v144v222v310v249v116q0 123 -75 123v17h379h27h45h3q133 -7 218 -30q126 -51 202 -161q78 -131 78 -253q0 -140 -78 -262q-51 -79 -123 -120l222 -361q24 -48 51 -79q31 -38 72 -38v-17 q0 7 -72 12t-171 5t-169 -5t-70 -12v17q44 0 45 41q0 31 -28 72l-187 294h-34h-31v-287q0 -119 75 -120v-17h-3q0 7 -67 12t-159 5t-158.5 -5t-66.5 -12zM0 1355q7 0 7 -3q13 -7 13 -41q-20 14 -20 44zM116 167q38 3 109 4q72 0 110 -4q-7 24 -7 72v287q0 51 51 51h31h34 q27 0 44 -24l188 -294q27 -48 34 -92q34 0 70 2t73 2h48h51q-10 7 -15 17t-9 20l-221 362q-14 17 -7 38q3 20 24 30q58 34 105 106q72 113 72 232q0 79 -37 161h-14q37 -80 37 -157q0 -96 -51 -198q-17 -27 -70 -34q-31 -4 -62 -4q-22 0 -46 2q-54 5 -90 17t-15 19 q89 24 123 123q8 34 8 68.5t-8 70.5q-20 55 -62 93h-23q48 -31 71 -96q10 -34 10 -67.5t-10 -65.5q-27 -92 -119 -116h-2h-2q-14 -3 -30.5 -5t-30.5 -2h-49.5h-49.5q-51 0 -51 51v277q0 17 3 24h-14q-3 -7 -3 -24v-277q0 -41 31 -54q20 -14 -9 -26q-30 -12 -74 -17 q-16 -2 -32 -2q-27 -1 -51 5q-39 8 -39 40v355h-14v-895q0 -34 -10 -75zM379 836q109 0 150 7q65 14 82 82q10 26 10 50.5t-10 48.5q-17 65 -82 82q-41 7 -150 7v-277zM430 239v215l51 -79v-187v-10v-18q-10 10 -27 11q-7 0 -10 3q-10 3 -12 29t-2 36zM430 887v171h22h22 q31 0 45 -3q34 -10 44 -45v-4v-2q-10 3 -37 3h-22h-23v-116h-7q-10 0 -22 -2t-22 -2zM614 51q10 0 24 7q14 0 34.5 1.5t34.5 5.5q38 0 73.5 1.5t72.5 1.5q38 0 74 -1.5t77 -1.5q10 -3 30.5 -5t37.5 -2q14 -7 24 -7q51 0 51 51v17q51 0 51 -51v-17q0 -51 -51 -51q-10 0 -24 7 q-17 0 -37.5 1.5t-30.5 5.5q-41 0 -77 1.5t-70 1.5q-41 0 -77 -1.5t-73 -1.5q-14 -3 -34.5 -5t-30.5 -2q-20 -7 -27 -7q-51 0 -52 51zM819 580q58 48 96 109q89 137 89 287q0 143 -89 284q-21 30 -38 54q55 -51 89 -106q89 -137 89 -283q0 -157 -89 -287q-38 -61 -96 -109 l198 -317q14 -27 24 -41q-17 3 -30 20q-10 14 -24 34.5t-21 37.5z" />
<glyph unicode="s" horiz-adv-x="1034" d="M0 1062q0 198 147 300q82 62 198 84q60 12 116 11q53 0 102 -10q31 -10 60 -5t29 50l17 6v-13q-3 0 -3 -195q0 -96 3 -162q3 -63 9 -63h1v-14l-17 -3v17q0 55 -102 77q-78 17 -121 17q-13 0 -23 -2q-85 -24 -85 -109q0 -61 99 -106q38 -14 75.5 -25.5t78.5 -22.5 q160 -55 225 -140q72 -102 72 -256q0 -198 -144 -300q-126 -96 -321 -96q-150 0 -279 65q-34 17 -52 17q-51 0 -51 -68h-17v10q3 0 8.5 68.5t5.5 163.5q0 96 -5.5 164.5t-8.5 68.5v10h17v-17q0 -65 126 -123q123 -65 243 -65q147 0 147 116q0 61 -99 106q-41 10 -78.5 23.5 t-75.5 27.5q-167 55 -225 140q-72 102 -72 253zM17 65h1h2h18q48 3 47 54v5v9q3 0 24 -10q133 -72 307 -72q205 0 352 106q164 116 164 341q0 171 -82 287l-4 1q-3 2 -3 6q38 -31 58 -62q85 -116 85 -283q0 -218 -167 -345q-79 -58 -169 -80t-182 -22q-177 0 -304 72h-4 q-20 10 -23 10v-10v-4q0 -51 -48 -54h-17q-20 -7 -38 13q-17 17 -17 38zM51 1048q3 -130 65 -208q31 -48 89 -77t109 -46q38 -14 75.5 -27.5t78.5 -23.5h2h1q48 -20 89 -58t41 -96q0 -92 -58 -129.5t-140 -37.5q-130 0 -266 68q-34 20 -55 31v-42.5v-43.5v-61.5v-60.5h3 q38 0 75 -21q106 -61 256 -61q171 0 291 85q122 91 122 256q0 61 -13.5 119t-47.5 110q-34 41 -92 71.5t-109 47.5q-41 10 -77 24t-74 27h-4h-2q-51 20 -90.5 58t-39.5 96h-14q0 -61 43 -102t97 -62l2 -2l2 -1q38 -14 75 -26t78 -22q48 -20 104.5 -47.5t86.5 -68.5 q9 -21 9 -36q1 -46 -75 -46q-100 0 -336 82l-35 13q-51 14 -105.5 43t-85.5 74q-61 79 -61 201h-14zM85 584v17q51 0 52 -51v-18q-27 20 -35 28q-17 7 -17 24zM89 717q41 -34 90.5 -58t100.5 -41h3q34 -10 72 -24t78 -24q14 -10 39.5 -24t25.5 -34q-14 7 -13 7 q-41 10 -78.5 22t-71.5 26h-2h-2q-65 20 -133 56t-109 94zM382 1048q0 48 45 58q20 3 51 -2t51 -5q10 -3 41 -13.5t41 -20.5v-17v-5v-5l-31 10q-20 0 -51 3.5t-51 3.5q-41 -10 -41 -58q-20 10 -37.5 22t-17.5 29zM662 997h6.5h10.5l17 7q34 10 34 47v14q0 17 -6 24 q-3 20 -4 61q-3 34 -3 70v70v63.5v63.5q0 10 -2 23.5t2 23.5q3 7 3 21v13q17 0 28 -10q24 -17 23 -41v-13q0 -14 -3 -21q-3 -14 -1.5 -27.5t1.5 -20.5v-64.5v-61.5v-72t3 -68v-30.5t4 -30.5q7 -7 7 -24v-14q0 -38 -34 -48l-18 -7q-31 -7 -47 7q-20 14 -21 45z" />
<glyph unicode="t" horiz-adv-x="1006" d="M0 983h7q55 0 54 51v4v6q7 10 32.5 12t36.5 2h95v-51h-44q-10 0 -36 -1.5t-32 -12.5v-7v-3q0 -51 -52 -51h-10q-20 0 -37 17q-14 14 -14 34zM0 1034q0 31 3.5 82t3.5 113q0 61 -3.5 112.5t-3.5 81.5h853q-3 -31 -4.5 -82t-1.5 -112t1.5 -112.5t4.5 -82.5h-6q0 75 -120 75 h-147v-870q0 -119 72 -120v-17q0 7 -66.5 12t-158.5 5t-159 -5t-67 -12v17q75 0 75 123v867h-146q-123 0 -123 -75h-7zM58 1154q34 10 72 10h146q51 0 52 -55v-867q0 -34 -11 -75q38 3 110 4q72 0 109 -4q-7 24 -7 72v870q0 55 51 55h147q34 0 72 -10q-3 27 -4 75v7h-10v-7 v-31v-27q-20 3 -58 3h-147q-65 0 -65 -65v-348q0 -41 -87 -41t-87 41v348q0 65 -65 65h-146q-41 0 -58 -3v27.5v30.5v7h-14v-7v-37.5v-37.5zM201 51q7 0 28 7q10 0 28.5 1.5t32.5 5.5q31 0 67 1.5t70 1.5t68 -1l68 -2q10 -3 30.5 -5t34.5 -2q14 -7 24 -7q55 0 55 51v17 q51 0 51 -51v-17q0 -51 -51 -51h-4q-10 0 -24 7q-14 0 -32.5 1.5t-28.5 5.5q-38 0 -72 1.5t-68 1.5t-68.5 -1.5t-68.5 -1.5q-10 -3 -30.5 -5t-30.5 -2q-14 -7 -27 -7q-51 0 -52 51zM631 239v819h96q10 0 34 -1.5t31 -12.5q3 -3 3 -10q0 -14 7 -27h-17h-7h-95v-819v-12v-16 q-10 10 -31 11h-4q-3 0 -3 3q-10 3 -12 29t-2 36zM847 983h6q24 0 41 17q14 14 11 41q-3 44 -3.5 92t-0.5 96v92t4 96q3 3 3 6q20 0 37 -17q14 -14 14 -41q-7 -48 -7 -95.5v-91.5v-97.5t7 -94.5q0 -24 -14 -37q-17 -17 -37 -17h-10q-51 0 -51 51z" />
<glyph unicode="u" horiz-adv-x="1324" d="M0 1355q7 0 10 -3q10 -7 17 -41q-27 10 -27 44zM0 1406v17q0 -10 66.5 -13.5t158.5 -3.5t159 4t67 13h3v-17q-75 0 -75 -119v-656q0 -130 95 -194q51 -34 113 -34q58 0 113 34q96 65 95 194v656q0 119 -75 119v17q0 -10 66.5 -13.5t158.5 -3.5t159 4t67 13h3v-17 q-44 0 -65 -41q-13 -25 -13 -75v-7v-559q0 -167 -34 -280q-38 -119 -147 -215q-147 -126 -328 -127q-184 0 -328 127q-106 89 -146 215q-34 96 -34 280v559q0 123 -79 123zM130 724q0 -65 5 -135t25 -128q38 -113 134 -195q132 -112 290 -112h3q157 0 294 112q99 89 133 195 q17 58 22 128t5 135v413h-10v-376q-3 -44 -87 -44t-84 44v376h-13v-506q0 -157 -120 -235q-75 -44 -140 -44q-75 0 -140 44q-119 75 -119 235v506h-14v-376q-3 -43 -82 -43h-5q-84 2 -84 43v376h-13v-413zM218 198q0 -3 3.5 -6.5t7.5 -3.5q164 -137 358 -137q195 0 358 137 q119 99 168 242q20 65 27 143.5t7 150.5v559q0 41 10 58q3 14 17 14q51 0 51 51v17q51 0 52 -51v-17q0 -51 -52 -51q-14 0 -17 -14q-10 -17 -10 -58v-560q0 -72 -7 -150t-27 -143q-44 -140 -164 -242q-164 -137 -362 -137q-201 0 -358 137q-38 31 -62 61zM430 631v656 q0 10 1.5 34t12.5 31q3 3 10 3q51 0 51 51v17q51 0 51 -51v-17q0 -51 -51 -51q-3 0 -7 -2l-3 -2q-10 -7 -12 -32.5t-2 -31.5v-656q0 -61 24 -99h-3q-72 44 -72 150zM720 1355q7 0 10 -3q4 -3 14 -41q-24 17 -24 44z" />
<glyph unicode="v" horiz-adv-x="1413" d="M0 1355q34 0 61 -55q-3 0 -7 2l-3 2q-51 0 -51 51zM0 1406v14q7 -7 70 -10.5t155 -3.5q85 0 148.5 4t73.5 10v-14q-38 0 -37 -41q0 -27 20 -78l17 -41l133 -311l65 -153l68 153l130 311l17 41q24 58 24 78q0 41 -41 41v17q0 -10 65 -13.5t157 -3.5t157 4t68 13v-17 q-79 0 -129 -123l-502 -1181h-28q-126 294 -252 589t-249 592q-51 123 -130 123zM246 1137q99 -236 198 -468t201 -468l399 936h-17l-157 -376q-21 -37 -84 -37q-8 0 -16 1q-65 4 -65 27q0 4 2 9l64 147l96 229h-14l-95 -222l-65 -154q-17 -34 -48 -34q-38 0 -48 34l-65 154 l-95 222h-14l99 -229l62 -147q3 -7 3 -13q-1 -28 -67 -28q-80 0 -100 41l-161 376h-13zM461 1355q41 10 41 51v14q14 0 20 -3q31 -17 31 -48v-14q0 -48 -41 -51q3 -31 17 -51l17 -38l116 -270l-17 -34l-17 45l-133 310v4l-17 37q-14 14 -17 48zM628 51h2h1h28q27 0 48 31 l501 1181q10 20 31 56t51 36q55 0 55 51v17l5 -1q5 -2 9 -2q38 -14 37 -51v-14q0 -51 -51 -51q-31 0 -53 -36t-32 -56l-502 -1181q-10 -31 -48 -31h-27q-34 0 -48 31z" />
<glyph unicode="w" horiz-adv-x="1966" d="M0 1355q34 0 61 -55q-3 0 -7 2l-3 2q-51 0 -51 51zM0 1406v14q7 -7 70 -10.5t155 -3.5q85 0 148.5 4t73.5 10v-14q-38 0 -37 -41q0 -27 20 -78l17 -41l133 -311l65 -153l68 153l130 311l17 41q24 58 24 78q0 41 -41 41v17q3 -10 102 -13l130 -331l62 -144l64 -153l69 153 l133 311l17 41q20 51 20 78q0 41 -41 41v17q3 -10 68.5 -13.5t157.5 -3.5q89 0 153.5 4t71.5 13v-17q-79 0 -130 -123l-505 -1181h-27l-263 622l-266 -622h-28q-126 294 -252 589t-249 592q-51 123 -130 123zM246 1137q99 -236 198 -468t201 -468l232 543q10 31 48 31 q31 0 48 -31l228 -543l400 936h-14l-160 -376q-26 -48 -82 -48q-12 0 -24 2q-59 9 -59 33q0 6 4 13l62 147l99 229h-17l-92 -222l-69 -154q-14 -34 -48 -34q-31 0 -47 34l-65 154l-62 147l-30 75h-14l34 -79v-3l62 -147l61 -147q-40 -14 -81 -13.5t-83 13.5q-17 27 -51 27 t-55 -27q-44 -16 -85 -15.5t-78 15.5l64 147l96 229h-14l-95 -222l-65 -154q-17 -34 -48 -34q-38 0 -48 34l-65 154l-95 222h-14l99 -229l62 -147q1 -3 1 -5q0 -20 -68 -31q-15 -2 -29 -2q-52 0 -68 38l-161 376h-13zM461 1355q41 10 41 51v14q14 0 20 -3q31 -17 31 -48v-14 q0 -48 -41 -51q3 -31 17 -51l17 -38l116 -270l-17 -34l-17 45l-133 310v4l-17 37q-14 14 -17 48zM628 51l7 -20q14 -31 48 -31h27q38 0 48 31l205 478l-38 85l-218 -512q-20 -31 -48 -31h-28h-1h-2zM1000 1410q34 -7 44 -34l130 -328l45 -103l-14 -34l-21 45l-61 143z M1184 51h2h2h27q34 0 48 31l505 1181q7 20 29 56t53 36q51 0 51 51v17l5 -1q5 -2 9 -2q38 -14 37 -51v-14q0 -51 -51 -51q-31 0 -51 -36t-31 -56l-505 -1181q-10 -31 -48 -31h-27q-34 0 -44 31z" />
<glyph unicode="x" horiz-adv-x="1146" d="M0 51q10 0 24 7q10 0 30.5 1.5t34.5 5.5h66.5h69.5h67h70q10 -3 30.5 -5t34.5 -2q14 -10 37 -3q38 10 38 47v17q0 38 -41 52q0 10 6.5 25.5t10.5 25.5l24 54l27 -54q0 -10 3.5 -17t6.5 -17l-10 -21v-3q-24 -17 -24 -45v-17q0 -38 34 -47q7 -3 14 -4q0 -38 -34 -48 q-27 -3 -41 4q-14 0 -34.5 1.5t-30.5 1.5q-34 0 -70 2t-67 2q-34 0 -69.5 -2t-66.5 -2q-14 0 -34.5 -1.5t-30.5 -1.5q-17 -7 -37 -4q-38 10 -38 48zM0 102v17q79 0 130 123l78 185q34 82 70 167t74 167l-222 522q-51 123 -130 123v17q3 -10 68 -13.5t157 -3.5q89 0 154 4 t72 13v-17q-41 0 -41 -41q0 -27 20 -78l17 -41l55 -130l58 130l17 41q20 51 20 78q0 41 -41 41v17q0 -10 66.5 -13.5t159.5 -3.5q89 0 153.5 4t71.5 13v-17q-79 0 -130 -123l-222 -522l144 -334l78 -185q51 -123 130 -123v-17q-7 7 -72 12t-153 5q-92 0 -159 -5t-67 -12v17 q41 0 41 41q0 27 -20 79l-17 41l-58 130l-55 -130l-17 -41q-20 -51 -20 -79q0 -41 41 -41v-17q-7 7 -72 12t-154 5q-92 0 -157 -5t-68 -12zM0 1355q31 0 65 -55q-7 0 -11 2l-3 2q-51 0 -51 51zM150 167q24 3 75 4q31 0 65 -2t68 -2q0 20 7 46t17 46l72 171q14 31 48 31 q38 0 48 -31l71 -171h2h2q17 -55 24 -92q31 0 65 2t68 2q48 0 75 -4q-10 14 -17 27.5t-11 27.5l-78 184l-143 338q-14 17 0 38l150 355h-14l-150 -349q-3 -10 -3 -27q1 -3 1 -6q0 -29 -92 -33q-10 -1 -19 -1q-67 0 -67 28q0 5 2 12q0 7 -6 27l-147 349h-14l150 -355 q10 -20 0 -38q-38 -85 -73.5 -170.5t-69.5 -167.5l-79 -184q-7 -14 -13.5 -27.5t-13.5 -27.5zM423 1137l21 -48q14 -38 58 -38t61 38l17 48h-13l-17 -41q-10 -31 -48 -31q-34 0 -48 31l-17 41h-14zM461 1355q41 10 41 51v17h3v-17q0 -41 38 -51q0 -17 -14 -44q-7 -7 -17 -7 q0 -7 1.5 -12t5.5 -9l-17 -37l-24 58q-3 10 -10 23.5t-7 27.5zM556 51q10 0 24 7q10 0 30.5 1.5t34.5 5.5h65h72h66.5h69.5q10 -3 29 -5t36 -2q14 -10 38 -3q38 10 37 47v17q51 0 51 -51v-17q0 -38 -37 -48q-24 -3 -38 4q-14 0 -34 1.5t-31 1.5q-34 0 -69.5 2t-66.5 2 q-38 0 -72 -2t-65 -2q-14 0 -34 -1.5t-31 -1.5q-17 -7 -40 -4q-34 10 -35 48zM710 761l215 502q7 20 29 56t53 36q51 0 51 51v17l5 -1q5 -2 9 -2q38 -14 37 -51v-14q0 -51 -51 -51q-31 0 -53 -36t-29 -56l-215 -502l137 -314l78 -184q3 -10 17 -38q-27 7 -44 37.5t-24 51.5 l-78 184z" />
<glyph unicode="y" horiz-adv-x="1430" d="M0 1355q34 0 61 -55q-3 0 -7 2l-3 2q-51 0 -51 51zM0 1406v14q7 -7 70 -10.5t155 -3.5q85 0 148.5 3.5t73.5 10.5v-14q-38 0 -37 -41q0 -27 20 -78l17 -41l133 -311l65 -153l68 153l130 311l17 41q24 58 24 78q0 41 -41 41v17q0 -10 65 -13.5t157 -3.5t157 3.5t68 13.5 v-17q-79 0 -129 -123l-366 -860l-61 -143l-17 -41q-20 -51 -21 -79q0 -41 41 -41v-17q-7 7 -71.5 12t-153.5 5q-92 0 -158.5 -5t-66.5 -12v17q79 0 129 123l79 185q-92 212 -184.5 426.5t-180.5 429.5q-51 123 -130 123zM246 1137q72 -174 147 -346.5t150 -343.5 q3 -20 0 -41l-79 -184q-10 -14 -15 -27.5t-12 -27.5q24 3 75 4q31 0 65 -2t68 -2q0 20 7 46t17 46l79 185l2 2q1 1 1 5l293 686h-17l-157 -376q-15 -33 -77 -33h-19q-68 5 -68 27q0 3 1 6l64 147l96 229h-14l-95 -222l-65 -154q-17 -34 -48 -34q-41 3 -48 34l-65 154 l-95 222h-14l99 -229l62 -147q2 -6 2 -10q0 -26 -61 -26h-7q-81 2 -98 36l-161 376h-13zM287 51q10 0 24 7q10 0 30.5 1.5t33.5 5.5h65h72h66.5h70.5q10 -3 28.5 -5t35.5 -2q14 -10 38 -3q38 10 37 47v17q0 38 -40 52q0 10 6.5 25.5t10.5 25.5l75 174l2 4l1 3l365 860 q10 20 31 56t51 36q55 0 55 51v17l5 -1q5 -2 9 -2q38 -14 37 -51v-14q0 -51 -51 -51q-31 0 -53 -36t-32 -56l-366 -860q0 -3 -3 -7l-75 -178q-3 -10 -10 -23.5t-7 -24.5q41 -14 41 -51v-17q0 -38 -38 -48q-24 -3 -37 4q-14 0 -34.5 1.5t-30.5 1.5q-34 0 -70 2t-67 2 q-38 0 -72 -2t-64 -2q-14 0 -34.5 -1.5t-30.5 -1.5q-17 -7 -41 -4q-34 10 -34 48zM461 1355q41 10 41 51v14q14 0 20 -3q31 -17 31 -48v-14q0 -41 -41 -51q3 -31 17 -51l17 -38l116 -270l-17 -34l-17 45l-133 310v4l-17 37q-14 14 -17 48z" />
<glyph unicode="z" horiz-adv-x="1122" d="M0 51h966q20 0 38 17q17 17 13 41q-3 44 -5 92t-2 96q0 44 2 92t5 99v1v3q20 0 38 -18q17 -20 13 -41q-3 -48 -4.5 -95.5t-1.5 -91.5q0 -48 1.5 -96t4.5 -92q3 -24 -13 -41q-17 -17 -38 -17h-966q-51 0 -51 51zM0 102v314h3l529 693h-71h-99h-239q-116 0 -116 -75h-7 q0 31 3.5 82t3.5 113q0 58 -3.5 109t-3.5 85h966v-314l-529 -693h68h99h239q116 0 116 76h7q-3 -31 -5 -82.5t-2 -112.5t2 -112.5t5 -82.5h-966zM0 983h7q51 0 51 51l2 4q1 3 1 6q3 10 27.5 12t34.5 2h307l-41 -51h-215q-10 0 -32.5 -3.5t-28.5 -10.5v-7v-3q0 -51 -55 -51 h-7q-27 0 -37 17q-14 7 -14 34zM51 154h860q-3 34 -3 69.5v73.5v36v39q-31 -10 -65 -10h-406q-31 0 -48 31q-14 31 7 54l519 679v11h-14v-4l-280 -372q-41 -41 -173 -43h-8q-98 0 -98 28q0 7 6 15l236 311q12 16 12 37q0 13 -5 28h-14q0 -3 3 -4q10 -31 -7 -54l-522 -686 v-239zM539 468l468 607q10 14 10 34v314q51 0 51 -54v-311q0 -20 -10 -34l-427 -556h-92z" />
<glyph unicode="&#x2000;" horiz-adv-x="749" />
<glyph unicode="&#x2001;" horiz-adv-x="1498" />
<glyph unicode="&#x2002;" horiz-adv-x="749" />
<glyph unicode="&#x2003;" horiz-adv-x="1498" />
<glyph unicode="&#x2004;" horiz-adv-x="499" />
<glyph unicode="&#x2005;" horiz-adv-x="374" />
<glyph unicode="&#x2006;" horiz-adv-x="249" />
<glyph unicode="&#x2007;" horiz-adv-x="249" />
<glyph unicode="&#x2008;" horiz-adv-x="187" />
<glyph unicode="&#x2009;" horiz-adv-x="299" />
<glyph unicode="&#x200a;" horiz-adv-x="83" />
<glyph unicode="&#x202f;" horiz-adv-x="299" />
<glyph unicode="&#x205f;" horiz-adv-x="374" />
<glyph unicode="&#x25fc;" horiz-adv-x="1416" d="M0 0v1417h1417v-1417h-1417z" />
</font>
</defs>
</svg>
